<svg xmlns:xlink="http://www.w3.org/1999/xlink" preserveAspectRatio="xMidYMid meet" data-bbox="20 49.5 160 101" viewBox="20 49.5 160 101" height="200" width="200" xmlns="http://www.w3.org/2000/svg" data-type="color" role="presentation" aria-hidden="true" aria-labelledby="svgcid-ysw2jr73etlx"><defs><style>#comp-lhpgoaav__item2 svg [data-color="2"] {fill: #F58F50;}</style></defs><title id="svgcid-ysw2jr73etlx"></title>
    <g>
        <path d="M159.649 90.265s.633.801 1.275.919c.642.118 5.082.82 8.621 5.464 3.539 4.643 6.546 11.569 7.357 14.584.811 3.015 2.701 10.123 0 14.457 0 0-.879 2.478-3.6 3.679v8.401l-28.902.152s.431-4.656.507-7.555c.077-2.899.015-5.124.015-5.124s-3.763 5.098-9.781 1.511l-9.919-22.132s8.403-3.647 9.519-3.59a1.252 1.252 0 0 1 1.239 1.054l2.158 4.199 1.273.979 3.41-10.06s3.426-5.832 10.008-6.298l6.82-.64z" fill="#1A1A1A" data-color="1"></path>
        <path d="M67.333 107.877H48.706c-9.976 0-18.139-8.162-18.139-18.139v-.3c0-9.976 8.162-18.139 18.139-18.139h18.626c9.976 0 18.139 8.162 18.139 18.139v.3c0 9.976-8.162 18.139-18.138 18.139z" fill="#F58F50" data-color="2"></path>
        <path d="M67.039 105.411s-6.149.49-12.637 9.991-9.232 15.481-9.568 17.09c-.337 1.608-1.242 5.812 2.938 8.37 0 0 .975 1.197 8.004 1.199 7.029.002 16.166-.174 16.166-.174s.759-.484 1.068-1.954c.309-1.471 7.607-2.29 7.607-2.29l-.851-4.481s6.511 6.288 11.471 5.328 5.806-4.457 5.806-4.457l-1.204-17.727-4.245-10.475s-2.549-1.058-5.731.58c-3.181 1.638-3.235 2.102-3.235 2.102s-.82-2.448-2.12-2.923c-1.3-.475-3.691-.362-3.691-.362l-9.778.183z" fill="#1A1A1A" data-color="1"></path>
        <path d="M113.242 74.874H85.741c-6.359 0-11.563-5.203-11.563-11.563v-.191c0-6.359 5.203-11.563 11.563-11.563h27.501c6.359 0 11.563 5.203 11.563 11.563v.191c0 6.36-5.203 11.563-11.563 11.563z" fill="#F58F50" data-color="2"></path>
        <path d="M83.596 95.528s1.177-.39 1.314-2.312c.137-1.922.21-3.286-.657-4.669-.866-1.383-3.405-1.878-5.384-1.826-1.98.051-4.215 1.13-4.899 1.862 0 0-2.23.888-2.66 1.292-.431.404-1.411 1.008-.961 3.013.45 2.005.819 4.376.846 5.929.027 1.553-.514 2.865-1.589 3.114-1.075.249-4.094.633-4.412 3.844l1.846-.363s4.704 2.694 6.955.958c2.252-1.735 1.867-1.922 1.867-1.922l3.355 1.013 1.29.127s3.523-.015 4.047-3.512c.525-3.497-1.021-5.693-1.021-5.693l.063-.855z" fill="#1A1A1A" data-color="1"></path>
        <path d="M87.848 105.643c.086-.018-.953-1.19-.953-1.19s-.378-3.361-1.01-5.196c-.632-1.834-2.289-3.495-2.289-3.495l-.204-3.64s-.269-1.626-2.644-1.848c0 0-1.43 3.927-4.734 5.128 0 0-2.268-.561-2.854 1.378-.586 1.939 2.044 2.264 2.044 2.264s1.633 2.382 1.126 4.247c-.507 1.865-2.064 3.451-3.981 3.568 0 0 .841 4.979 4.493 4.197s1.653-3.845 1.653-3.845l1.294-4.865s-.345 3.333 1.907 4.14l.934 2.022c-.003.002 2.826-2.379 5.218-2.865z" fill="#FFFFFF" data-color="3"></path>
        <path d="M69.905 133.857s3.052-.36 5.692-.21 3.717.21 4.681 1.121c.964.91 3.267 3.66 3.692 4.643.426.983-.356 1.424-.747 1.363-.392-.061-1.386-.623-1.386-.623s1.127 1.943-.221 2.208c-1.348.265-2.013-1.328-2.504-2.056-.491-.728-1.416-1.979-1.416-1.979l1.414 3.508s.327 1.025-.791 1.17c-1.119.145-2.035-1.632-2.035-1.632l-1.336-2.472s-1.894 1.688-4.626 1.228c-.002 0-.648-3.911-.417-6.269z" fill="#FFFFFF" data-color="3"></path>
        <path fill="#FFFFFF" d="m70.701 144.33 14.124-5.032 15.888 3.922-11.038 7.1-18.974-5.99z" data-color="3"></path>
        <path d="M52.136 79.757c-.967-1.668-2.549-1.668-3.515.001l-7.426 12.823c-.966 1.669-.189 3.034 1.727 3.034h14.92c1.916 0 2.693-1.365 1.726-3.033l-7.432-12.825z" fill="#FFFFFF" data-color="3"></path>
        <path d="M98.07 66.956c0 1.711-1.376 3.098-3.073 3.098s-3.073-1.387-3.073-3.098c0-1.711 1.376-3.098 3.073-3.098 1.698 0 3.073 1.387 3.073 3.098z" fill="#FFFFFF" data-color="3"></path>
        <path d="M83.365 66.956c0 1.711-1.376 3.098-3.073 3.098s-3.073-1.387-3.073-3.098c0-1.711 1.376-3.098 3.073-3.098 1.698 0 3.073 1.387 3.073 3.098z" fill="#FFFFFF" data-color="3"></path>
        <path d="M113.361 66.956c0 1.711-1.376 3.098-3.073 3.098s-3.073-1.387-3.073-3.098c0-1.711 1.376-3.098 3.073-3.098s3.073 1.387 3.073 3.098z" fill="#FFFFFF" data-color="3"></path>
        <path d="M133.868 103.702s.799-3.298.966-4.402c.167-1.104.643-2.525-.261-3.43-.903-.904-2.973-1.825-3.834-1.831-.86-.006-1.514.062-1.672.676-.158.614-.203 1.797 3.339 3.662l-9.364.1s1.878 3.793 4.109 6.351l4.744-.13 1.973-.996z" fill="#FFFFFF" data-color="3"></path>
        <path d="M159.649 90.265s-1.036-1.373-.94-3.465c.096-2.093.178-2.654.178-2.654s1.551-.701 1.321-2.253c-.23-1.553-1.531-1.584-2.708-1.329l-1.863-1.106s-.202-1.43-1.402-1.639c0 0-1.072-1.44-1.102-2.906 0 0-2.399 1.222-3.076 3.069 0 0-1.627-.027-1.659 2.582-.033 2.609 1.409 3.056 1.409 3.056s-.027 2.953 1.144 3.71c1.171.757 1.806.415 1.806.415l.075 3.161.791 4.068 6.026-4.709z" fill="#FFFFFF" data-color="3"></path>
        <path d="M158.887 88.441s1.113.277 2.015 0c.902-.277 1.328-.985 1.328-.985l-.053-.793s.522.18 1.162.793c.64.613.489 2.161-.829 2.969-1.318.808-2.239.479-2.239.479s-1.098-.753-1.384-2.463z" fill="#1A1A1A" data-color="1"></path>
        <path d="M163.835 87.892s3.023 2.037 4.174 4.378c1.151 2.341 1.376 4.378 1.376 4.378s-1.444-2.364-4.354-3.888-4.472-1.837-4.472-1.837 1.9.063 2.509-1.074c.609-1.139.767-1.957.767-1.957z" fill="#F58F50" data-color="2"></path>
        <path d="M162.23 87.456s-.228-1.19.498-5.105c.726-3.915.951-4.906.951-4.906s.184-2.988-3.225-4.073c-3.409-1.086-7.015-.898-8.585-.298-1.57.6-2.114 1.973-2.124 3.103-.01 1.131 0 1.683 0 1.683h.283s.609-1.368 2.933-2.947c0 0 .607 2.341 1.274 2.906 0 0 1.191.119 1.402 1.639 0 0 1.325.92 1.863 1.106 0 0 .648-.412 1.506.035.859.447 1.269 1.277 1.202 2.199-.067.921-1.321 1.349-1.321 1.349s-.276 1.728-.183 2.852c.093 1.123.183 1.444.183 1.444s2.556.568 3.343-.987z" fill="#F58F50" data-color="2"></path>
        <path d="M152.456 106.282s-1.481-6.857-2.429-8.723l-13.005-.028s1.764 6.121 2.105 9.102c.341 2.982 1.332 10.637 1.017 12.178h11.635l.677-12.529z" fill="#FFFFFF" data-color="3"></path>
        <path d="M155.779 111.467s-1.066-1.121-1.006-2.692c.06-1.571-.347-2.633-1.17-3.683-.823-1.05-1.712-1.387-1.712-1.387l.558 2.928s.324 2.296-1.026 2.07c-1.351-.226-5.931-3.875-5.931-3.875s-.918-.324-1.373.15c-.455.474-.149 1.74-.149 1.74s-.993-.154-1.36.302c-.367.456.546 1.864.546 1.864s-.275.401-.215.845c.06.444.027 1.747 3.059 3.353 3.033 1.606 6.068 3.66 6.068 3.66s2.198-4.061 3.711-5.275z" fill="#FFFFFF" data-color="3"></path>
        <path fill="#FFFFFF" d="m136.926 105.786-3.238-.953-29.912-.019-1.642.486-1.717 1.041-.915 1.05-8.266 21.504.086 1.433.643 1.57 2.2 1.467 42.761-27.579z" data-color="3"></path>
        <path d="M134.961 105.643h-28.648c-2.571 0-4.847 1.388-5.625 3.432l-7.547 19.819c-1.208 3.173 1.632 6.41 5.625 6.41h28.648c2.571 0 4.847-1.388 5.625-3.432l7.547-19.819c1.209-3.173-1.632-6.41-5.625-6.41z" fill="#F58F50" data-color="2"></path>
        <path d="m114.587 125.517-3.399.113-1.049-.659-.184-.955 2.316-5.986.846-.74h9.171l.914.618.251.921-2.147 5.698s-.53-2.716-2.059-4.053h-5.471v1.972s.79 2.046.809 2.917v.154z" fill="#1A1A1A" data-color="1"></path>
        <path d="M113.777 122.446s1.235 2.866 1.505 7.541c.271 4.675.852 10.781.528 13.172l1.325.853h5.55s.11-6.176-.296-10.646c-.406-4.47-.948-8.769-1.624-10.441-.677-1.672-1.509-2.593-1.509-2.593l-5.479.144v1.97z" fill="#FFFFFF" data-color="3"></path>
        <path d="M115.711 140.583h-11.858l-.582.615v1.123l-.142 1.576 4.816 3.313 26.599.032s.67-.392.767-.777.056-2.454.056-2.454.085-.214-1.538-1.262a137.988 137.988 0 0 0-3.497-2.166h-14.621z" fill="#FFFFFF" data-color="3"></path>
        <path d="m133.868 103.702.483-2.674s1.401-.011 1.37.876c-.031.888-1.853 1.798-1.853 1.798z"></path>
        <path d="m126.185 103.775-.963.843 1.93.211-.967-1.054z"></path>
        <path d="M107.945 147.21s26.448.227 26.921.031c.024-.043.433-.732.444-.776.061-.243.067-1.159.064-1.8-.044-.016-.241.415-.241.415l-.776.459h-26.345l-4.741-3.218-.142 1.576 4.816 3.313z" fill="#F58F50" data-color="2"></path>
        <path d="m83.533 96.382.063-.854s1.177-.39 1.314-2.312c.137-1.922.21-3.286-.657-4.669-.866-1.383-3.405-1.878-5.384-1.826a5.91 5.91 0 0 0-.397.024c-.02.051 4.218 2.087-.759 7.527-2.574 2.814 2.885 3.199 6.455 3.438-.304-.853-.635-1.328-.635-1.328z" fill="#FFFFFF" data-color="3"></path>
        <path d="M73.994 106.369c2.252-1.735 1.867-1.922 1.867-1.922l2.688.811c-.597-2.33-1.356-5.282-1.356-5.282l-1.76-.933-1.063-.003s1.809 3.239-.899 5.373c-2.708 2.133-6.432.998-6.432.998s4.704 2.694 6.955.958z" fill="#FFFFFF" data-color="3"></path>
        <path d="M178.179 122.163s-3.261-2.713-7.237.58c-3.977 3.293-2.267 7.124-2.267 7.124s4.045 1.136 7.031-2.268c2.986-3.406 2.473-5.436 2.473-5.436z" fill="#F58F50" data-color="2"></path>
        <path d="M155.932 72.603c-1.722-.062-3.201.141-4.064.471-1.57.6-2.114 1.973-2.124 3.103-.01 1.131 0 1.683 0 1.683h.283s.609-1.368 2.933-2.947c0 0 .607 2.341 1.274 2.906 0 0 1.19.119 1.402 1.639 0 0 1.325.92 1.863 1.106 0 0 .032-.018.079-.04-.695-.886-2.722-3.303-2.992-5.363-.167-1.284.571-2.082 1.346-2.558z" fill="#FFFFFF" data-color="3"></path>
        <path d="M162.23 87.636a.178.178 0 0 1-.171-.127c-.223-.739-.038-1.611-.03-1.648.694-5.201 1.394-8.122 1.469-8.433-.082-1.367-.71-2.457-1.866-3.24-2.992-2.032-8.457-1.411-9.703-.945-.073.013-.714.078-1.262.757-.659.815-.9 2.19-.696 3.976a.18.18 0 0 1-.158.199c-.08.021-.186-.059-.198-.158-.217-1.92.047-3.352.784-4.255.588-.721 1.281-.846 1.429-.864 1.63-.597 7.095-.983 10.006.992 1.261.854 1.942 2.048 2.024 3.546-.012.083-.745 3.015-1.476 8.489-.003.022-.175.833.021 1.48a.18.18 0 0 1-.119.225.255.255 0 0 1-.054.006z"></path>
        <path d="M142.611 97.712a.18.18 0 0 1-.151-.276c2.499-3.993 5.912-6.182 10.434-6.692.102-.015.186.06.198.159a.181.181 0 0 1-.158.199c-4.407.498-7.734 2.633-10.172 6.527a.18.18 0 0 1-.151.083z"></path>
        <path d="M152.643 88.029c-.402 0-.745-.048-1.054-.147-.753-.24-1.264-.801-1.561-1.714-.236-.728-.363-1.536-.401-2.544a.178.178 0 0 1 .172-.186c.115.01.181.074.186.173.036.972.157 1.749.382 2.444.259.795.694 1.279 1.329 1.482.389.124.847.158 1.44.108a20.565 20.565 0 0 0 2.048-.278.178.178 0 0 1 .21.141.18.18 0 0 1-.141.212c-.61.124-1.489.232-2.088.284a5.68 5.68 0 0 1-.522.025z"></path>
        <path d="M157.499 80.86a.168.168 0 0 1-.083-.021c-.706-.371-1.335-.723-1.901-1.25a.181.181 0 0 1-.01-.255.18.18 0 0 1 .252-.01c.534.498 1.142.836 1.824 1.196a.182.182 0 0 1 .076.243.178.178 0 0 1-.158.097z"></path>
        <path d="M149.968 78.161c-.152-.042-.201-.145-.169-.239.484-1.408 3.031-3.09 3.139-3.161a.178.178 0 0 1 .276.134c.001.013.141 1.324 1.167 2.821a.18.18 0 0 1-.045.251.176.176 0 0 1-.248-.046c-.801-1.166-1.087-2.212-1.183-2.701-.637.447-2.403 1.761-2.768 2.82a.178.178 0 0 1-.169.121z"></path>
        <path d="M158.345 84.408c-.327 0-.649-.079-.938-.231a.182.182 0 0 1-.076-.243.18.18 0 0 1 .241-.077c.269.141.572.204.879.187a1.696 1.696 0 0 0 1.575-1.8 1.694 1.694 0 0 0-1.784-1.586 1.658 1.658 0 0 0-.922.348.18.18 0 0 1-.251-.032.183.183 0 0 1 .033-.253 2.02 2.02 0 0 1 1.247-.427 2.05 2.05 0 0 1 2.033 1.928 2.054 2.054 0 0 1-2.037 2.186z"></path>
        <path d="M158.755 83.483a.172.172 0 0 1-.109-.038l-1.257-.978a.184.184 0 0 1-.07-.144.18.18 0 0 1 .073-.143l1.388-1.035a.177.177 0 0 1 .25.038.181.181 0 0 1-.038.252l-1.197.893 1.069.833c.078.06.092.173.033.253a.18.18 0 0 1-.142.069z"></path>
        <path d="M153.622 95.152a.18.18 0 0 1-.176-.149l-.708-4.05-.162-3.052a.178.178 0 1 1 .356-.018l.159 3.03.654 3.734 5.794-4.524a.178.178 0 0 1 .25.032.183.183 0 0 1-.031.253l-6.028 4.707a.174.174 0 0 1-.108.037z"></path>
        <path d="M147.605 112.075a.172.172 0 0 1-.109-.038c-.105-.082-.4-.251-.774-.467-1.39-.802-3.719-2.143-4.179-3.317-.372-.949-.035-1.41.199-1.601.407-.331 1.008-.299 1.329-.083a.181.181 0 0 1 .05.25.177.177 0 0 1-.248.05c-.213-.144-.648-.148-.907.063-.277.225-.307.636-.091 1.188.414 1.056 2.763 2.41 4.025 3.137.401.232.69.398.815.495a.183.183 0 0 1 .033.253.184.184 0 0 1-.143.07z"></path>
        <path d="M152.07 116.923a.175.175 0 0 1-.093-.026 404.692 404.692 0 0 0-6.652-4.005c-1.459-.86-2.304-1.784-2.513-2.747-.176-.813.184-1.341.199-1.364a.178.178 0 0 1 .249-.044c.08.057.1.169.044.25-.012.018-.287.434-.14 1.092.188.845.999 1.71 2.342 2.501a396.375 396.375 0 0 1 6.656 4.009.181.181 0 0 1-.092.334z"></path>
        <path d="M152.449 106.814a.178.178 0 0 1-.176-.15c-.847-5.01-2.145-8.325-2.402-8.952h-7.261a.179.179 0 0 1-.179-.18c0-.1.08-.18.179-.18h7.379c.071 0 .135.042.164.108.015.035 1.525 3.547 2.47 9.144a.18.18 0 0 1-.145.208.283.283 0 0 1-.029.002z"></path>
        <path d="M139.185 107.201a.18.18 0 0 1-.177-.154c-.911-6.254-2.14-9.418-2.153-9.449a.18.18 0 0 1 .167-.246h5.589c.099 0 .179.08.179.18 0 .1-.08.18-.179.18h-5.333c.303.86 1.31 3.968 2.084 9.283a.18.18 0 0 1-.151.205l-.026.001z"></path>
        <path d="M151.779 118.992h-11.635a.18.18 0 0 1-.179-.178 80.32 80.32 0 0 0-.212-5.027.179.179 0 0 1 .165-.192.18.18 0 0 1 .191.166c.123 1.719.185 3.144.21 4.87h11.46c.099 0 .179.08.179.18a.18.18 0 0 1-.179.181z"></path>
        <path d="M144.401 138.099a.181.181 0 0 1-.142-.29c.301-.536.609-9.239.67-18.998a.18.18 0 0 1 .179-.179.18.18 0 0 1 .179.181c-.044 7.108-.285 18.61-.744 19.215a.176.176 0 0 1-.142.071z"></path>
        <path d="M173.303 138.06a.18.18 0 0 1-.178-.189c.117-2.474 0-8.348-.001-8.407a.18.18 0 0 1 .176-.183c.1 0 .18.078.182.176.001.059.119 5.944-.001 8.432a.178.178 0 0 1-.178.171z"></path>
        <path d="M166.165 117.105a.177.177 0 0 1-.159-.099c-2.969-5.946-3.348-15.474-3.351-15.569a.18.18 0 0 1 .172-.186c.102 0 .181.076.186.173.003.094.379 9.545 3.312 15.42a.18.18 0 0 1-.16.261z"></path>
        <path d="M151.247 83.799a.173.173 0 0 1-.101-.032c-.273-.189-.815-.791-.875-1.264a.509.509 0 0 1 .108-.412c.263-.31.725-.108 1.032.025.034.015.072.032.108.046.06-.374.199-1.373.286-2.021a.184.184 0 0 1 .201-.155.178.178 0 0 1 .152.203c-.045.339-.274 2.038-.321 2.209a.252.252 0 0 1-.113.138c-.122.06-.255 0-.455-.088-.184-.08-.53-.23-.621-.121-.009.011-.036.042-.025.131.042.33.494.854.723 1.013a.18.18 0 0 1 .046.25.17.17 0 0 1-.145.078z"></path>
        <path d="M152.79 85.131a1.99 1.99 0 0 1-.539-.08.18.18 0 0 1-.124-.221.177.177 0 0 1 .22-.126c.4.11.729.082.972-.088.41-.285.471-.876.471-.881.009-.099.116-.176.194-.162a.18.18 0 0 1 .162.196c-.003.031-.078.764-.623 1.144-.21.145-.456.218-.733.218z"></path>
        <path d="M155.778 111.647a.157.157 0 0 1-.063-.012c-.1-.039-.976-.448-1.128-2.946-.238-3.942-2.727-4.804-2.753-4.813a.181.181 0 0 1-.114-.227.179.179 0 0 1 .226-.115c.112.037 2.746.949 2.997 5.133.138 2.267.896 2.63.903 2.633.09.039.132.144.095.234a.175.175 0 0 1-.163.113z"></path>
        <path d="M148.8 110.642a.172.172 0 0 1-.073-.016c-2.214-1.01-4.765-2.815-5.132-4.393-.11-.469-.021-.886.263-1.237.223-.278.522-.432.841-.433.434 0 .823.229 1.185.462.332.215.651.457.959.691.127.096.252.192.38.286.682.506 1.393.956 2.058 1.366.172.106.343.22.516.336.415.277.845.563 1.289.734.206.08.364.103.501.076.652-.133.715-.98.685-1.875a.18.18 0 0 1 .173-.186c.096-.01.181.075.185.174.021.658.066 2.028-.973 2.24-.264.055-.527-.026-.699-.092-.481-.186-.927-.483-1.358-.771-.17-.113-.338-.225-.506-.329a28.732 28.732 0 0 1-2.083-1.383c-.129-.095-.256-.192-.384-.289-.303-.23-.616-.468-.937-.675-.317-.206-.654-.406-.988-.406-.271.001-.457.164-.567.3-.213.264-.275.567-.192.927.286 1.231 2.361 2.975 4.931 4.148a.18.18 0 0 1-.074.345z"></path>
        <path d="M153.595 74.141a.178.178 0 0 1-.155-.09.18.18 0 0 1 .066-.246c.052-.03 1.292-.743 2.032-.907a.18.18 0 0 1 .077.351c-.687.152-1.919.86-1.932.868a.174.174 0 0 1-.088.024z"></path>
        <path d="M52.922 131.835a.18.18 0 0 1-.08-.34c5.308-2.695 18.224-1.763 18.772-1.721a.179.179 0 0 1 .165.193.179.179 0 0 1-.178.166c-.148-.01-13.379-.966-18.599 1.683a.174.174 0 0 1-.08.019z"></path>
        <path d="M62.739 142.242c-1.375.001-2.738-.004-4.101-.005h-.608l-.77.002c-1.748.007-3.556.009-5.321-.111-1.851-.128-3.311-.53-4.464-1.231-1.736-1.054-2.954-3.02-3.179-5.13-.328-3.08 1.577-6.499 3.108-9.247.265-.475.521-.934.754-1.371a90.93 90.93 0 0 1 6.097-9.852c3.022-4.249 6.9-8.767 12.743-10.061a.18.18 0 0 1 .077.351c-5.725 1.268-9.546 5.726-12.529 9.92a90.39 90.39 0 0 0-6.074 9.814c-.234.439-.491.899-.757 1.376-1.507 2.703-3.38 6.067-3.064 9.032.213 2.001 1.366 3.863 3.007 4.86 1.104.67 2.512 1.056 4.304 1.179 1.753.121 3.554.115 5.296.111l.771-.002c.885-.003 1.78 0 2.671.002 3.575.008 7.269.013 10.89-.174.09-.012.182.071.187.171.006.1-.07.184-.169.189-2.943.153-5.934.177-8.869.177z"></path>
        <path d="M60.848 130.133a.174.174 0 0 1-.08-.019.181.181 0 0 1-.079-.242l7.009-14.065a.176.176 0 0 1 .24-.08.181.181 0 0 1 .079.242l-7.009 14.065a.181.181 0 0 1-.16.099z"></path>
        <path d="M77.962 143.246c-.374 0-.742-.176-1.043-.516-.22-.249-.381-.541-.538-.823a19.042 19.042 0 0 0-.137-.243c-.22-.381-.427-.77-.632-1.159l-.051-.096c-.07-.133-.14-.267-.209-.403-.274-.53-.558-1.078-.917-1.544a.18.18 0 0 1 .284-.221c.377.492.669 1.054.95 1.598.07.134.138.267.208.399l.051.096c.205.385.408.771.627 1.147.048.082.093.165.14.25.148.264.299.539.494.758.343.389.776.496 1.18.298.198-.096.35-.224.439-.37a.983.983 0 0 0 .124-.575c-.017-.278-.115-.546-.222-.818-.123-.314-.266-.64-.45-1.027a32.99 32.99 0 0 0-1.435-2.671.181.181 0 0 1 .062-.247.176.176 0 0 1 .245.062c.537.902 1.025 1.81 1.448 2.7.188.394.335.728.462 1.05.113.288.225.597.245.927.02.295-.042.568-.175.787-.127.205-.329.38-.588.506a1.265 1.265 0 0 1-.562.135z"></path>
        <path d="M81.286 142.599c-.296 0-.691-.115-1.111-.552-1.462-1.516-3.274-4.589-3.35-4.719a.181.181 0 0 1 .063-.247.178.178 0 0 1 .244.063c.019.032 1.866 3.167 3.299 4.653.368.382.749.521 1.101.404.331-.111.546-.415.568-.583.143-1.115-2.07-3.887-2.935-4.861a.181.181 0 0 1 .013-.254.177.177 0 0 1 .252.014c.132.148 3.219 3.642 3.024 5.149-.041.312-.355.726-.81.877a1.189 1.189 0 0 1-.358.056z"></path>
        <path d="M83.199 140.954c-.041 0-.081-.002-.122-.006-.856-.084-1.565-1.03-1.594-1.07a.18.18 0 0 1 .036-.252.176.176 0 0 1 .25.036c.007.009.645.859 1.343.927.249.023.481-.058.696-.254.472-.432-.495-1.873-1.216-2.679-1.269-1.823-2.619-3.128-3.454-3.341-3.491-.896-8.887-.283-8.938-.277-.094.015-.187-.059-.199-.158a.18.18 0 0 1 .157-.199c.056-.006 5.512-.626 9.069.285 1.107.283 2.609 1.976 3.645 3.467.201.223 2.064 2.358 1.176 3.171-.255.233-.541.35-.849.35z"></path>
        <path d="M71.208 140.369c-.289 0-.594-.02-.913-.065a.18.18 0 0 1-.152-.203.178.178 0 0 1 .201-.153c2.699.378 4.366-1.165 4.384-1.181a.176.176 0 0 1 .252.008.18.18 0 0 1-.008.254c-.064.062-1.446 1.34-3.764 1.34z"></path>
        <path d="M133.868 103.882c-.122-.015-.191-.106-.177-.204.015-.112.373-2.766.976-4.439.606-1.682.21-3.032-.47-3.448-.91-.557-3.847-1.997-4.738-1.453-.188.114-.271.321-.255.632.109 1.977 3.995 3.565 4.035 3.581a.18.18 0 0 1 .1.234.176.176 0 0 1-.232.1c-.169-.068-4.137-1.69-4.258-3.895-.031-.562.214-.833.427-.961 1.286-.781 5.07 1.431 5.108 1.454.957.586 1.217 2.217.618 3.879-.589 1.637-.954 4.337-.958 4.364a.177.177 0 0 1-.176.156z"></path>
        <path d="M127.152 104.924a.172.172 0 0 1-.132-.06c-1.124-1.262-3.165-4.519-4.134-6.299a.179.179 0 1 1 .314-.173c.937 1.723 2.995 5.007 4.085 6.232a.181.181 0 0 1-.013.254.184.184 0 0 1-.12.046z"></path>
        <path d="M130.741 101.528a.18.18 0 0 1-.171-.127c-.6-1.957-2.813-2.745-2.835-2.753a.18.18 0 0 1-.11-.229.178.178 0 0 1 .227-.112c.098.034 2.406.853 3.061 2.987a.182.182 0 0 1-.172.234z"></path>
        <path d="M139.327 128.166c-1.466 0-2.897-.421-4.277-1.262a.181.181 0 0 1-.062-.247.179.179 0 0 1 .245-.061c2.124 1.293 4.371 1.55 6.681.764 1.221-.416 2.274-1.278 3.042-2.494a.178.178 0 0 1 .248-.055.181.181 0 0 1 .055.248c-.814 1.286-1.931 2.199-3.23 2.641a8.34 8.34 0 0 1-2.702.466z"></path>
        <path d="M138.14 106.462a.176.176 0 0 1-.16-.101c-1.43-2.962-2.553-4.902-2.564-4.922a.181.181 0 0 1 .064-.246.176.176 0 0 1 .245.065c.01.019 1.14 1.971 2.576 4.946a.18.18 0 0 1-.161.258z"></path>
        <path d="M125.142 104.923a.182.182 0 0 1-.092-.025.181.181 0 0 1-.062-.247c.215-.364.472-.604 1.096-1.026a.179.179 0 0 1 .249.049.182.182 0 0 1-.049.25c-.574.388-.806.601-.989.911a.177.177 0 0 1-.153.088z"></path>
        <path d="M131.79 104.924a.178.178 0 0 1-.165-.111.18.18 0 0 1 .098-.235c2.604-1.081 4-2.361 3.8-2.929-.072-.206-.26-.419-1.097-.441a.18.18 0 0 1 .005-.36c.843.021 1.268.224 1.43.68.364 1.032-1.819 2.477-4.002 3.382a.167.167 0 0 1-.069.014z"></path>
        <path d="M149.876 83.724c-.986-.022-1.702-1.339-1.666-3 .017-.772.199-1.498.513-2.043.327-.569.761-.881 1.225-.881.974.022 1.69 1.339 1.654 2.999-.013.612-.081 1.018-.245 1.446a.176.176 0 0 1-.23.104.18.18 0 0 1-.102-.233c.149-.391.208-.75.22-1.324.031-1.41-.556-2.615-1.28-2.631-.348 0-.673.248-.934.701-.282.493-.448 1.157-.463 1.871-.031 1.41.556 2.615 1.281 2.631.249-.001.409-.043.634-.3a.178.178 0 0 1 .252-.016c.073.066.08.18.015.254-.26.298-.514.422-.874.422z"></path>
        <path d="M154.193 83.559c-.975-.022-1.691-1.339-1.655-3 .036-1.647.799-2.924 1.739-2.924.974.022 1.69 1.339 1.654 3-.018.772-.199 1.498-.513 2.043-.327.569-.761.881-1.225.881zm.083-5.563c-.72 0-1.351 1.172-1.381 2.572-.031 1.409.556 2.614 1.281 2.631.348 0 .673-.249.934-.701.282-.494.448-1.158.463-1.871.031-1.41-.556-2.615-1.281-2.631h-.016z"></path>
        <path d="M151.421 81.049a.18.18 0 0 1-.14-.291c.214-.273.81-.642 1.544-.089.079.06.095.173.036.252a.177.177 0 0 1-.25.036c-.628-.474-1.007-.028-1.05.023a.174.174 0 0 1-.14.069z"></path>
        <path d="M90.631 138.702c-2.263 0-4.665-.932-6.683-2.211-1.028-.651-1.974-1.448-2.89-2.219-.388-.327-.776-.654-1.171-.971a.18.18 0 0 1-.028-.253.177.177 0 0 1 .251-.029c.396.318.786.646 1.176.976.907.763 1.844 1.552 2.852 2.191 3.636 2.304 8.556 3.465 11.45-.199.274-.347.527-.733.751-1.145a.178.178 0 0 1 .243-.071.18.18 0 0 1 .071.244 8.51 8.51 0 0 1-.786 1.195c-1.411 1.789-3.271 2.492-5.236 2.492z"></path>
        <path d="M86.413 127.695a.18.18 0 0 1-.157-.266c.46-.862.236-1.761-.001-2.714l-1.018-4.153c-.314-1.282-1.094-3.197-1.848-5.051-.761-1.868-1.547-3.8-1.867-5.109a.16.16 0 0 1-.003-.069c.013-.084.344-2.074 3.9-3.888 3.942-2.01 6.168-.827 6.262-.775a.172.172 0 0 1 .079.089c.417 1.022.867 2.08 1.326 3.159 1.029 2.42 2.094 4.924 2.921 7.326a.179.179 0 0 1-.11.229.18.18 0 0 1-.227-.111c-.823-2.39-1.886-4.887-2.913-7.302-.45-1.058-.892-2.096-1.302-3.1-.352-.159-2.44-.945-5.876.806-3.133 1.598-3.642 3.336-3.7 3.589.319 1.283 1.093 3.182 1.84 5.019.76 1.865 1.545 3.794 1.865 5.101l1.018 4.152c.244.978.495 1.989-.031 2.973a.181.181 0 0 1-.158.095z"></path>
        <path d="M80.507 105.823c-.329-.09-1.023-.167-1.301-.183a.178.178 0 0 1-.167-.19c.005-.099.08-.168.188-.169.253.015.996.09 1.331.19a.18.18 0 0 1-.051.352z"></path>
        <path d="M74.98 99.224c-.541 0-1.05-.21-1.434-.594a2.056 2.056 0 0 1-.606-1.45 2.051 2.051 0 0 1 2.029-2.068c.406-.02.804.116 1.143.345a.18.18 0 0 1 .05.25.178.178 0 0 1-.248.05 1.666 1.666 0 0 0-.932-.285 1.693 1.693 0 0 0-1.683 1.706 1.69 1.69 0 0 0 1.682 1.688c.316-.002.615-.087.875-.247a.175.175 0 0 1 .245.06.181.181 0 0 1-.059.247 2.015 2.015 0 0 1-1.05.299l-.012-.001z"></path>
        <path d="M74.636 98.326a.182.182 0 0 1-.134-.06.182.182 0 0 1 .015-.254l1.011-.904-1.256-.809a.18.18 0 0 1-.053-.248.175.175 0 0 1 .246-.055l1.454.937a.182.182 0 0 1 .022.287l-1.188 1.062a.176.176 0 0 1-.117.044z"></path>
        <path d="M80.417 99.78c-.236 0-.45-.057-.639-.171-.57-.341-.694-1.068-.7-1.099a.181.181 0 0 1 .148-.207.18.18 0 0 1 .206.148c0 .006.103.595.531.85.253.152.581.158.973.019a.18.18 0 0 1 .119.34c-.227.08-.44.12-.638.12z"></path>
        <path d="M78.517 107.302c-.142-.032-.198-.13-.172-.226l1.245-4.706a.18.18 0 0 1 .219-.128.18.18 0 0 1 .126.22l-1.245 4.706a.18.18 0 0 1-.173.134z"></path>
        <path d="M82.646 94.273c-.143-.018-.237.047-.26.566-.026.579.125.676.254.666.128-.01.251-.192.231-.604-.021-.412-.038-.605-.225-.628z"></path>
        <path d="M78.531 94.294c-.144-.014-.235.053-.246.573-.011.579.143.672.271.659.128-.013.246-.199.215-.61-.03-.411-.052-.603-.24-.622z"></path>
        <path d="M83.391 93.513a.172.172 0 0 1-.073-.016c-.006-.002-.555-.251-1.12-.217a.181.181 0 0 1-.187-.171.18.18 0 0 1 .169-.189c.673-.033 1.26.237 1.285.248a.18.18 0 0 1-.074.345z"></path>
        <path d="M79.762 93.313a.18.18 0 0 1-.121-.047c-.018-.01-.115-.059-.4-.081a.179.179 0 0 1-.164-.193c.007-.1.086-.181.192-.165.42.033.575.124.631.193a.18.18 0 0 1-.138.293z"></path>
        <path d="M20.818 107.883a.78.78 0 0 0 .778-.784.78.78 0 0 0-.778-.784.78.78 0 0 0-.778.784c0 .433.349.784.778.784z" fill="#1A1A1A" data-color="1"></path>
        <path d="M26.865 107.923a.821.821 0 0 0 .818-.825.821.821 0 0 0-.818-.825.821.821 0 0 0-.818.825c0 .456.366.825.818.825z" fill="#1A1A1A" data-color="1"></path>
        <path d="M32.912 107.862a.76.76 0 0 0 .758-.764.76.76 0 0 0-.758-.764.76.76 0 0 0-.758.764.76.76 0 0 0 .758.764z" fill="#1A1A1A" data-color="1"></path>
        <path fill="#1A1A1A" d="M21.636 113.195a.822.822 0 0 1-.818.825.822.822 0 0 1-.818-.825c0-.456.366-.825.818-.825.452 0 .818.37.818.825z" data-color="1"></path>
        <path d="M26.865 114.061a.862.862 0 0 0 .858-.866.862.862 0 0 0-.858-.866.863.863 0 0 0-.859.866c0 .478.385.866.859.866z" fill="#1A1A1A" data-color="1"></path>
        <path d="M32.912 114c.441 0 .798-.36.798-.805s-.357-.805-.798-.805c-.441 0-.798.36-.798.805s.357.805.798.805z" fill="#1A1A1A" data-color="1"></path>
        <path d="M20.818 120.056a.76.76 0 0 0 .758-.764.76.76 0 0 0-.758-.764.76.76 0 0 0-.758.764c0 .422.34.764.758.764z" fill="#1A1A1A" data-color="1"></path>
        <path d="M26.865 120.096c.441 0 .798-.36.798-.805a.802.802 0 0 0-.798-.805.801.801 0 0 0-.798.805c0 .445.357.805.798.805z" fill="#1A1A1A" data-color="1"></path>
        <path d="M32.912 120.042a.747.747 0 0 0 .744-.751.747.747 0 0 0-.744-.751.747.747 0 0 0-.744.751.746.746 0 0 0 .744.751z" fill="#1A1A1A" data-color="1"></path>
        <path d="M82.627 84.448a.179.179 0 0 1-.179-.18c0-1.233-.21-2.338-.664-3.477a.181.181 0 0 1 .1-.234.178.178 0 0 1 .232.1c.47 1.183.689 2.33.689 3.611.001.1-.079.18-.178.18z"></path>
        <path d="M53.96 111.135H37.489c-5.508 0-9.989-4.518-9.989-10.071V84.268c0-5.553 4.481-10.071 9.989-10.071h30.867c.099 0 .179.08.179.18 0 .1-.08.18-.179.18H37.489c-5.311 0-9.631 4.356-9.631 9.711v16.796c0 5.355 4.32 9.711 9.631 9.711H53.96a.18.18 0 0 1 0 .36z"></path>
        <path d="M64.178 98.264H49.257c-.994 0-1.739-.349-2.099-.982-.36-.633-.282-1.457.217-2.322l7.426-12.823c.501-.864 1.181-1.341 1.912-1.341.731 0 1.411.476 1.912 1.34l7.433 12.825c.501.864.579 1.689.219 2.322-.36.632-1.106.981-2.099.981zm-7.465-17.108c-.6 0-1.169.413-1.603 1.162l-7.426 12.824c-.434.749-.51 1.445-.216 1.961.293.516.929.801 1.789.801h14.921c.86 0 1.496-.285 1.789-.801.294-.516.217-1.212-.217-1.961l-7.433-12.825c-.434-.749-1.004-1.161-1.604-1.161z"></path>
        <path d="M96.419 68.938c-1.792 0-3.251-1.47-3.251-3.278 0-1.807 1.459-3.278 3.251-3.278 1.793 0 3.252 1.47 3.252 3.278 0 1.807-1.459 3.278-3.252 3.278zm0-6.197c-1.596 0-2.893 1.309-2.893 2.918 0 1.609 1.297 2.919 2.893 2.919 1.596 0 2.893-1.309 2.893-2.919.001-1.609-1.297-2.918-2.893-2.918z"></path>
        <path d="M81.714 68.938c-1.793 0-3.251-1.47-3.251-3.278 0-1.807 1.459-3.278 3.251-3.278 1.793 0 3.251 1.47 3.251 3.278 0 1.807-1.459 3.278-3.251 3.278zm0-6.197c-1.596 0-2.893 1.309-2.893 2.918 0 1.609 1.297 2.919 2.893 2.919 1.596 0 2.893-1.309 2.893-2.919 0-1.609-1.297-2.918-2.893-2.918z"></path>
        <path d="M111.709 68.938c-1.792 0-3.251-1.47-3.251-3.278 0-1.807 1.459-3.278 3.251-3.278 1.793 0 3.252 1.47 3.252 3.278 0 1.807-1.459 3.278-3.252 3.278zm0-6.197c-1.596 0-2.893 1.309-2.893 2.918 0 1.609 1.297 2.919 2.893 2.919 1.596 0 2.893-1.309 2.893-2.919.001-1.609-1.296-2.918-2.893-2.918z"></path>
        <path d="M33.083 71.863a.18.18 0 0 1-.178-.168s-.015-.206-.015-.581c0-.325.013-.852.069-1.52.008-.098.094-.185.193-.164a.18.18 0 0 1 .163.195 18.008 18.008 0 0 0-.066 1.49c0 .356.013.553.013.557a.18.18 0 0 1-.165.192l-.014-.001zm.332-4.129c-.129-.021-.194-.115-.176-.213.126-.687.285-1.372.473-2.035.028-.096.124-.155.221-.124a.18.18 0 0 1 .123.222 21.805 21.805 0 0 0-.466 2.002.18.18 0 0 1-.175.148zm1.125-3.984a.18.18 0 0 1-.166-.245c.251-.648.536-1.289.846-1.908a.175.175 0 0 1 .24-.079.182.182 0 0 1 .079.242 21.09 21.09 0 0 0-.832 1.876.182.182 0 0 1-.167.114zm1.862-3.689a.176.176 0 0 1-.096-.028.181.181 0 0 1-.053-.249c.371-.584.775-1.156 1.204-1.7a.177.177 0 0 1 .251-.029.18.18 0 0 1 .028.253c-.42.534-.818 1.096-1.183 1.67a.18.18 0 0 1-.151.083zm2.551-3.241a.178.178 0 0 1-.124-.05.181.181 0 0 1-.003-.255c.475-.495.984-.975 1.51-1.426a.178.178 0 0 1 .252.021.181.181 0 0 1-.02.254c-.519.445-1.018.916-1.487 1.403a.182.182 0 0 1-.128.053zm31.24-.854c-.005-.005-.502-.487-1.429-1.187a.181.181 0 0 1-.036-.252.178.178 0 0 1 .25-.036c1.581 1.193 1.533 1.337 1.511 1.405l-.335-.125.165.069-.126.126zm-28.117-1.827a.176.176 0 0 1-.146-.076.182.182 0 0 1 .044-.251c.554-.394 1.14-.772 1.741-1.126a.176.176 0 0 1 .244.064.18.18 0 0 1-.065.246c-.592.349-1.169.722-1.716 1.109a.167.167 0 0 1-.102.034zm25.098-.499a.185.185 0 0 1-.095-.027 25.931 25.931 0 0 0-1.771-1.029.18.18 0 0 1 .168-.319c.6.318 1.203.669 1.794 1.043a.18.18 0 0 1-.096.332zm-21.553-1.588a.183.183 0 0 1-.162-.102.18.18 0 0 1 .085-.24 23.998 23.998 0 0 1 1.903-.822.177.177 0 0 1 .23.104.18.18 0 0 1-.105.232c-.628.24-1.259.512-1.875.81a.173.173 0 0 1-.076.018zm17.916-.339a.19.19 0 0 1-.07-.014 24.179 24.179 0 0 0-1.91-.728.18.18 0 0 1-.114-.227.178.178 0 0 1 .225-.115c.646.215 1.298.464 1.938.739a.18.18 0 0 1-.069.345zm-14.073-1.117a.177.177 0 0 1-.172-.133.18.18 0 0 1 .125-.221 20.884 20.884 0 0 1 2.022-.451c.112-.015.191.05.206.148a.18.18 0 0 1-.145.208c-.665.114-1.333.263-1.989.443a.156.156 0 0 1-.047.006zm10.17-.177a22.581 22.581 0 0 0-2.045-.374.179.179 0 0 1-.153-.203.183.183 0 0 1 .2-.155c.678.091 1.364.218 2.039.377a.18.18 0 0 1-.041.355zm-6.122-.513a.18.18 0 0 1-.178-.168.179.179 0 0 1 .166-.192 19.898 19.898 0 0 1 2.07-.033.18.18 0 0 1-.006.359 19.574 19.574 0 0 0-2.041.033l-.011.001z"></path>
        <path d="M156.204 70.924a.18.18 0 0 1-.171-.125l-.094-.299a.181.181 0 0 1 .114-.227.18.18 0 0 1 .226.115l.096.302a.181.181 0 0 1-.171.234zm-.821-2.24a.177.177 0 0 1-.164-.109 21.835 21.835 0 0 0-.893-1.847.182.182 0 0 1 .071-.245.18.18 0 0 1 .243.072c.328.605.634 1.237.907 1.878a.179.179 0 0 1-.164.251zm-1.973-3.629a.179.179 0 0 1-.148-.078 20.854 20.854 0 0 0-1.233-1.634.18.18 0 0 1 .021-.254.178.178 0 0 1 .251.022 20.94 20.94 0 0 1 1.257 1.663.18.18 0 0 1-.148.281zm-2.649-3.161a.175.175 0 0 1-.124-.05c-.481-.47-.997-.925-1.532-1.353a.18.18 0 0 1-.029-.253.177.177 0 0 1 .25-.029c.545.435 1.07.898 1.56 1.376a.181.181 0 0 1 .003.255.177.177 0 0 1-.128.054zm-28.246-2.061a.177.177 0 0 1-.136-.063.181.181 0 0 1 .02-.254c.026-.021.62-.53 1.712-1.203a.175.175 0 0 1 .245.06.18.18 0 0 1-.059.247c-1.066.657-1.66 1.164-1.666 1.17a.178.178 0 0 1-.116.043zm25.031-.51a.178.178 0 0 1-.098-.029 22.897 22.897 0 0 0-1.757-1.043.18.18 0 0 1 .168-.317c.614.329 1.215.685 1.785 1.058a.18.18 0 0 1-.098.331zm-21.536-1.669a.178.178 0 0 1-.16-.101.18.18 0 0 1 .083-.241c.62-.302 1.261-.578 1.906-.822a.18.18 0 0 1 .23.106.181.181 0 0 1-.105.232 21.46 21.46 0 0 0-1.876.809.192.192 0 0 1-.078.017zm17.913-.282a.181.181 0 0 1-.071-.015 23.866 23.866 0 0 0-1.904-.737.182.182 0 0 1-.113-.228.179.179 0 0 1 .227-.113c.639.216 1.289.468 1.932.748a.18.18 0 0 1 .093.237.178.178 0 0 1-.164.108zm-14.065-1.165a.178.178 0 0 1-.172-.133.18.18 0 0 1 .126-.221c.667-.18 1.348-.329 2.026-.443.1-.017.19.051.206.148a.181.181 0 0 1-.148.207c-.666.112-1.336.258-1.991.435a.162.162 0 0 1-.047.007zm10.171-.145a22.867 22.867 0 0 0-2.044-.382.178.178 0 0 1-.152-.203.18.18 0 0 1 .201-.154c.684.094 1.368.223 2.037.383a.18.18 0 0 1 .131.217.177.177 0 0 1-.173.139zm-6.121-.53a.18.18 0 0 1-.012-.36 20.41 20.41 0 0 1 2.072-.029.18.18 0 0 1-.006.36 19.524 19.524 0 0 0-2.043.029h-.011z"></path>
        <path d="M179.821 138.147h-56.208a.179.179 0 0 1-.179-.18c0-.1.08-.18.179-.18h56.208c.099 0 .179.08.179.18 0 .1-.08.18-.179.18z"></path>
        <path d="M114.841 138.147H93.36a.179.179 0 0 1-.179-.18c0-.1.08-.18.179-.18h21.482c.099 0 .179.08.179.18a.18.18 0 0 1-.18.18z"></path>
        <path d="M87.352 138.147h-4.271a.179.179 0 0 1-.179-.18c0-.1.08-.18.179-.18h4.271c.099 0 .179.08.179.18 0 .1-.08.18-.179.18z"></path>
        <path d="M45.106 138.147H23.758a.179.179 0 0 1-.179-.18c0-.1.08-.18.179-.18h21.348c.099 0 .179.08.179.18 0 .1-.08.18-.179.18z"></path>
        <path d="M80.033 134.761a.18.18 0 0 1-.179-.178c-.002-.223-.07-.521-.156-.899-.375-1.655-1.075-4.736.949-11.46 1.022-3.393 1.443-6.547.178-10.906a.179.179 0 0 1 .121-.223.18.18 0 0 1 .221.123c1.104 3.804 1.053 7.023-.178 11.112-1.996 6.632-1.31 9.653-.942 11.276.091.398.162.713.165.974 0 .099-.064.176-.179.181z"></path>
        <path d="M71.601 142.066c-1.289 0-1.986-3.167-1.986-6.146 0-2.98.696-6.147 1.986-6.147.693 0 1.588 1.878 1.588 3.874a.179.179 0 1 1-.358 0c0-1.956-.884-3.514-1.23-3.514-.77 0-1.628 2.376-1.628 5.787 0 3.41.858 5.787 1.628 5.787.486 0 .867-.596 1.166-1.822a.176.176 0 0 1 .216-.132.18.18 0 0 1 .13.217c-.348 1.43-.828 2.096-1.512 2.096z"></path>
        <path d="M81.889 104.166a.177.177 0 0 1-.16-.102c-.514-1.077.285-2.146.319-2.19a.177.177 0 0 1 .25-.033c.079.06.093.173.034.253-.007.009-.699.94-.281 1.815a.18.18 0 0 1-.083.24.188.188 0 0 1-.079.017z"></path>
        <path d="M87.76 105.823a.177.177 0 0 1-.144-.073l-.865-1.19a.203.203 0 0 1-.03-.067 28.934 28.934 0 0 1-.477-2.85c-.409-3.882-2.727-5.571-2.751-5.588a.182.182 0 0 1-.044-.251.178.178 0 0 1 .249-.044c.101.072 2.474 1.791 2.902 5.845.127 1.214.41 2.538.462 2.772l.843 1.16a.182.182 0 0 1-.038.252.188.188 0 0 1-.107.034z"></path>
        <path d="M82.689 108.829a.176.176 0 0 1-.163-.106l-.926-2.08c-2.153-1.126-2.039-2.96-1.957-4.302l.006-.079a.179.179 0 0 1 .178-.169c.109.006.185.092.178.191l-.005.079c-.082 1.323-.185 2.97 1.817 3.987a.17.17 0 0 1 .082.087l.952 2.138a.18.18 0 0 1-.162.254z"></path>
        <path d="M81.307 98.447c-.049 0-.079-.003-.086-.003a.179.179 0 0 1-.16-.196c.009-.098.092-.176.194-.163.031.007.653.05.972-.518.169-.299.146-.327-.059-.593a4.108 4.108 0 0 1-.594-1.005c-.536-1.266-.301-1.838-.272-1.899a.178.178 0 0 1 .238-.086.182.182 0 0 1 .086.237c-.005.01-.193.499.275 1.607.203.48.402.737.548.924.246.318.363.506.09.993-.362.641-1.001.702-1.232.702z"></path>
        <path d="M76.014 95.582a.18.18 0 0 1-.065-.347c.735-.288 1.464-.778 2.168-1.456 1.696-1.634 2.589-3.185 2.728-4.743a.18.18 0 0 1 .178-.164c.114.009.187.097.178.196-.148 1.649-1.076 3.274-2.838 4.971-.738.711-1.507 1.226-2.284 1.531a.166.166 0 0 1-.065.012z"></path>
        <path d="M71.812 107.057c-2.455 0-4.832-1.471-4.867-1.493a.18.18 0 0 1-.057-.248.178.178 0 0 1 .245-.057c.049.031 4.931 3.047 7.712.26 2.774-2.781.241-6.331.215-6.367a.182.182 0 0 1 .038-.252.178.178 0 0 1 .25.039c.028.038 2.738 3.838-.252 6.836-.955.956-2.128 1.282-3.284 1.282z"></path>
        <path d="M65.184 106.149a.181.181 0 0 1-.179-.183c.059-3.628 4.358-4.156 4.401-4.161 2.334-.613 1.621-4.332 1.047-7.32-.279-1.454-.499-2.603-.33-3.206.452-1.62 2.237-2.266 3.196-2.613.149-.054.279-.101.382-.144.157-.066.335-.196.559-.36.769-.563 2.056-1.506 4.992-1.544 2.296-.04 3.89.457 4.864 1.487 1.129 1.194 1.162 2.9 1.089 4.079-.198 3.206-1.518 3.51-1.575 3.521a.178.178 0 0 1-.21-.141.182.182 0 0 1 .137-.212c.024-.006 1.115-.317 1.293-3.191.108-1.767-.207-2.977-.992-3.809-.864-.914-2.347-1.377-4.413-1.377l-.188.001c-2.821.038-4.051.938-4.786 1.476-.244.179-.437.321-.635.402a8.565 8.565 0 0 1-.398.15c-.96.347-2.569.93-2.971 2.371-.146.522.078 1.689.337 3.041.57 2.971 1.351 7.039-1.333 7.741-.189.023-4.055.504-4.108 3.814a.18.18 0 0 1-.179.178z"></path>
        <path d="m80.666 102.453-.136-.001a20.87 20.87 0 0 1-2.102-.139.18.18 0 0 1-.153-.202c.013-.098.084-.166.2-.155.602.08 1.469.126 2.062.137.572.005 1.049-.055 1.429-.206.62-.245 1.021-.759 1.225-1.57.187-.74.255-1.544.215-2.528-.058-1.473-.194-5.5-.194-5.5-.41-1.807-2.445-1.833-2.464-1.833a.18.18 0 0 1 0-.36c.023 0 2.34.03 2.818 2.147.005.034.141 4.058.199 5.532.041 1.02-.031 1.856-.227 2.631-.235.932-.707 1.526-1.441 1.816-.5.197-1.034.231-1.431.231z"></path>
        <path d="M117.968 77.979H74.87c-2.174 0-3.943-1.783-3.943-3.975V58.278c0-2.192 1.769-3.975 3.943-3.975h43.098c2.174 0 3.943 1.783 3.943 3.975v15.726c.001 2.192-1.769 3.975-3.943 3.975zM74.87 54.662c-1.977 0-3.585 1.622-3.585 3.615v15.726c0 1.993 1.608 3.615 3.585 3.615h43.098c1.977 0 3.585-1.622 3.585-3.615V58.278c0-1.993-1.608-3.615-3.585-3.615H74.87z"></path>
        <path d="M94.803 134.211a.177.177 0 0 1-.106-.035l-2.818-2.082a.181.181 0 0 1-.042-.045c-.835-1.244-1.008-2.682-.487-4.049l7.547-19.819c.808-2.122 3.136-3.547 5.792-3.547h28.647c1.394 0 3.712.903 4.696 1.525a.18.18 0 0 1 .056.248.177.177 0 0 1-.246.057c-.947-.599-3.175-1.47-4.506-1.47h-28.647c-2.509 0-4.702 1.333-5.459 3.317l-7.547 19.819c-.473 1.244-.32 2.555.434 3.693l2.792 2.063a.182.182 0 0 1 .038.252.179.179 0 0 1-.144.073z"></path>
        <path d="M127.415 135.484h-4.934a.179.179 0 0 1-.179-.18c0-.1.08-.18.179-.18h4.934c2.509 0 4.702-1.333 5.459-3.316l7.547-19.819c.481-1.266.314-2.597-.471-3.749-1.032-1.513-2.897-2.417-4.988-2.417h-28.648c-2.509 0-4.702 1.333-5.459 3.316l-7.547 19.819c-.481 1.266-.314 2.597.471 3.748 1.032 1.514 2.897 2.418 4.988 2.418h16.757c.099 0 .179.08.179.18 0 .1-.08.18-.179.18H98.766c-2.209 0-4.184-.962-5.282-2.573-.853-1.252-1.035-2.702-.509-4.081l7.547-19.819c.808-2.121 3.135-3.547 5.791-3.547h28.648c2.21 0 4.184.962 5.282 2.573.854 1.252 1.035 2.702.509 4.082l-7.547 19.819c-.807 2.121-3.134 3.546-5.79 3.546z"></path>
        <path d="M114.587 125.809h-2.971c-.663 0-1.258-.291-1.59-.779a1.362 1.362 0 0 1-.157-1.267l2.122-5.573c.245-.646.949-1.08 1.748-1.08h8.055c.663 0 1.258.291 1.59.779.26.383.319.844.157 1.267l-2.122 5.573a.175.175 0 0 1-.23.104.18.18 0 0 1-.102-.233l2.122-5.573a.992.992 0 0 0-.119-.934c-.263-.384-.759-.624-1.296-.624h-8.055c-.653 0-1.222.342-1.416.849l-2.122 5.573a.992.992 0 0 0 .119.934c.263.384.759.624 1.296.624h2.971a.18.18 0 0 1 0 .36z"></path>
        <path d="M76.369 111.261c-3.73 0-4.208-4.246-4.213-4.291a.18.18 0 0 1 .159-.197c.12-.008.187.063.196.161.017.166.451 3.967 3.856 3.967.092 0 .185-.002.28-.008 1.041-.061 1.724-.378 2.033-.943.571-1.044-.287-2.633-.295-2.649a.18.18 0 0 1 .07-.245.178.178 0 0 1 .242.07c.04.072.963 1.778.296 2.997-.372.681-1.154 1.061-2.325 1.13a6.13 6.13 0 0 1-.299.008z"></path>
        <path d="M78.975 141.409a.18.18 0 0 1-.056-.351l.567-.187a.18.18 0 0 1 .112.342l-.567.188a.223.223 0 0 1-.056.008z"></path>
        <path d="M89.676 150.5c-.053-.008-19.028-5.999-19.028-5.999a.183.183 0 0 1-.126-.166.181.181 0 0 1 .114-.174l5.868-2.307a.176.176 0 0 1 .231.102.18.18 0 0 1-.101.233l-5.394 2.121 18.41 5.813 10.611-6.654-15.432-3.985-.749.247a.18.18 0 0 1-.226-.115.181.181 0 0 1 .114-.227l.799-.264a.18.18 0 0 1 .1-.003l15.888 4.102c.07.018.121.076.132.147a.185.185 0 0 1-.082.181l-11.037 6.92a.158.158 0 0 1-.092.028z"></path>
        <path d="M117.238 144.191a.179.179 0 0 1-.179-.18c0-22.203-3.256-23.353-3.289-23.361a.184.184 0 0 1-.132-.214.178.178 0 0 1 .202-.139c.145.026 3.577.896 3.577 23.715 0 .099-.08.179-.179.179z"></path>
        <path d="M115.906 143.401a.18.18 0 0 1-.179-.179c-.09-14.062-1.51-19.216-2.116-20.779a.18.18 0 0 1 .101-.233.179.179 0 0 1 .231.102c.614 1.582 2.051 6.786 2.141 20.908a.18.18 0 0 1-.178.181z"></path>
        <path d="M122.686 144.191h-5.55a.173.173 0 0 1-.096-.028l-1.325-.853a.182.182 0 0 1-.055-.249.177.177 0 0 1 .248-.055l1.281.825h5.318c-.018-22.031-3.256-23.173-3.289-23.181a.186.186 0 0 1-.133-.214.18.18 0 0 1 .202-.139c.145.026 3.577.896 3.577 23.715a.178.178 0 0 1-.178.179z"></path>
        <path d="M113.809 122.626a.179.179 0 0 1-.179-.18v-1.972c0-.1.08-.18.179-.18h5.447c.099 0 .179.08.179.18 0 .1-.08.18-.179.18h-5.268v1.792c0 .1-.08.18-.179.18z"></path>
        <path d="M134.206 145.729h-25.843c-.257 0-.506-.074-.721-.213l-4.073-2.628a1.33 1.33 0 0 1-.562-1.516 1.312 1.312 0 0 1 1.283-.969h11.421c.099 0 .179.08.179.18 0 .1-.08.18-.179.18H104.29c-.542 0-.845.383-.94.711-.095.328-.045.816.412 1.111l4.073 2.628a.958.958 0 0 0 .528.157h25.843c.542 0 .845-.383.94-.71a.977.977 0 0 0-.413-1.111l-4.072-2.628a.966.966 0 0 0-.529-.157h-7.447a.179.179 0 0 1-.179-.18c0-.1.08-.18.179-.18h7.447c.257 0 .506.073.722.213l4.072 2.628c.513.332.734.927.563 1.516a1.312 1.312 0 0 1-1.283.968z"></path>
        <path d="M134.206 147.472h-25.843c-.257 0-.506-.074-.721-.213l-4.073-2.628a1.316 1.316 0 0 1-.579-.801.18.18 0 0 1 .13-.218.174.174 0 0 1 .216.131c.059.24.206.443.425.584l4.073 2.629a.957.957 0 0 0 .528.156h25.843c.565 0 .865-.404.951-.751a.179.179 0 1 1 .346.087c-.124.51-.574 1.024-1.296 1.024z"></path>
        <path d="M132.497 98.658h-15.349a.179.179 0 0 1-.179-.18V87.06c0-.1.08-.18.179-.18h16.54c.099 0 .179.08.179.18v8.111a.179.179 0 1 1-.358 0V87.24h-16.182v11.058h15.17c.099 0 .179.08.179.18 0 .1-.08.18-.179.18z"></path>
        <path d="M125.418 94.364a.174.174 0 0 1-.116-.043l-8.27-7.124a.182.182 0 0 1-.02-.254.178.178 0 0 1 .252-.02l8.154 7.024 8.154-7.024a.178.178 0 0 1 .252.02.181.181 0 0 1-.02.254l-8.27 7.124a.178.178 0 0 1-.116.043z"></path>
        <path d="M117.148 98.658a.18.18 0 0 1-.13-.303l5.895-6.34a.175.175 0 0 1 .252-.008.18.18 0 0 1 .008.254l-5.895 6.34a.177.177 0 0 1-.13.057z"></path>
        <path d="M129.561 94.219a.175.175 0 0 1-.13-.057l-1.768-1.901a.18.18 0 0 1 .008-.254.176.176 0 0 1 .252.008l1.768 1.901a.18.18 0 0 1-.13.303z"></path>
        <path d="M103.165 143.966a.179.179 0 0 1-.179-.18v-1.629a.179.179 0 1 1 .358 0v1.629a.18.18 0 0 1-.179.18z"></path>
        <path d="M135.31 146.579a.179.179 0 0 1-.179-.18v-1.578a.179.179 0 1 1 .358 0v1.578c0 .1-.08.18-.179.18z"></path>
        <path d="M170.364 130.178c-5.678 0-13.393-5.561-19.072-11.768a.18.18 0 0 1-.038-.178c.007-.022.717-2.16 2.257-4.245 2.043-2.769 3.305-3.829 3.357-3.872a.176.176 0 0 1 .209-.013c.076.048 7.525 4.827 11.563 8.807.071.07.072.183.003.255a.177.177 0 0 1-.252.003c-3.742-3.687-10.445-8.074-11.394-8.688-.332.302-1.504 1.423-3.201 3.723a16.807 16.807 0 0 0-2.169 4.044c6.868 7.48 16.677 14.004 22.056 10.706 2.132-1.305 3.525-3.288 4.137-5.894 1.75-7.432-3.147-18.05-6.315-23.153-.9-1.449-1.891-2.98-3.055-4.355-.428-.507-.972-.921-1.586-1.371a22.91 22.91 0 0 0-2.411-1.54 15.232 15.232 0 0 0-1.786-.862c-.451-.178-.9-.258-1.376-.343a23.034 23.034 0 0 1-.402-.073c-.315-.061-.646-.246-.986-.549-.468-.421-.824-1.024-1.057-1.793-.332-1.1-.415-2.363-.259-3.976.034-.349.073-.654.122-.93a.186.186 0 0 1 .207-.146.18.18 0 0 1 .144.209c-.046.266-.085.561-.117.901-.151 1.564-.073 2.783.245 3.836.213.705.534 1.253.952 1.629.286.256.568.417.816.464.134.026.266.049.398.073.494.088.96.171 1.444.362.563.223 1.16.511 1.827.881a23.19 23.19 0 0 1 2.448 1.564c.634.465 1.195.893 1.648 1.43 1.178 1.392 2.18 2.936 3.085 4.397 3.198 5.15 8.136 15.879 6.36 23.427-.636 2.703-2.082 4.762-4.299 6.119-1.028.632-2.214.918-3.503.919z"></path>
        <path d="M169.546 96.827a.18.18 0 0 1-.178-.165c-.48-5.702-5.721-8.583-5.773-8.611a.18.18 0 0 1-.074-.243.179.179 0 0 1 .242-.074c.055.029 5.465 2.998 5.961 8.899a.18.18 0 0 1-.163.195l-.015-.001z"></path>
        <path d="M159.994 88.76a4.591 4.591 0 0 1-1.157-.146.182.182 0 0 1-.122-.223.177.177 0 0 1 .222-.122c.023.006 2.262.639 3.139-.902a.18.18 0 0 1 .243-.067c.086.05.115.16.066.246-.565.992-1.588 1.214-2.391 1.214z"></path>
        <path d="M160.775 91.085c-.165 0-.339-.009-.523-.029a.18.18 0 0 1-.159-.199c.012-.098.108-.162.196-.16 1.123.125 2.017-.171 2.603-.844.58-.666.708-1.523.614-1.919-.145-.608-1.045-.999-1.38-1.098a.18.18 0 0 1 .102-.346c.057.017 1.402.428 1.624 1.36.133.55-.066 1.523-.692 2.241-.41.47-1.145.993-2.385.994z"></path>
        <path d="M80.616 143.6a.18.18 0 0 1-.076-.343l5.091-2.379a.178.178 0 0 1 .237.088.18.18 0 0 1-.086.239l-5.091 2.379a.178.178 0 0 1-.075.016z"></path>
        <path d="M84.779 145.419a.18.18 0 0 1-.082-.339l5.325-2.819a.178.178 0 0 1 .241.076.18.18 0 0 1-.075.243l-5.325 2.819a.182.182 0 0 1-.084.02z"></path>
        <path d="M88.765 146.921a.178.178 0 0 1-.155-.09.182.182 0 0 1 .065-.246l5.716-3.321a.177.177 0 0 1 .244.066.182.182 0 0 1-.065.246l-5.716 3.321a.175.175 0 0 1-.089.024z"></path>
        <path d="M168.749 130.046a.178.178 0 0 1-.16-.1c-1.106-2.247-.302-5.123 2.001-7.156 2.496-2.202 5.737-2.521 7.708-.763.073.066.08.18.015.254a.18.18 0 0 1-.252.015c-1.837-1.639-4.88-1.317-7.236.764-2.179 1.924-2.948 4.626-1.915 6.724a.181.181 0 0 1-.081.241.157.157 0 0 1-.08.021z"></path>
    </g>
</svg>