<svg xmlns:xlink="http://www.w3.org/1999/xlink" preserveAspectRatio="xMidYMid meet" data-bbox="20 49.5 160 101" viewBox="20 49.5 160 101" height="200" width="200" xmlns="http://www.w3.org/2000/svg" data-type="color" role="presentation" aria-hidden="true"><defs><style>#comp-lhpgoaav__item1 svg [data-color="3"] {fill: #F58F50;}</style></defs>
    <g>
        <path d="M173.876 97.074h-12.255l-5.439 3.422V87.628c0-1.839 1.48-3.33 3.305-3.33h14.389c1.825 0 3.305 1.491 3.305 3.33v6.116c0 1.839-1.479 3.33-3.305 3.33z" fill="#FFFFFF" data-color="1"></path>
        <path d="M62.26 88.887s-1.077-1.784-3.249-1.784c-2.173 0-2.114.554-3.541.554s-4.276-.475-5.433 2.212c-1.157 2.687.446 4.225 2.455 4.004l-.254.431s-.799 1.337-.729 1.356c.07.019-.414 3.13 1.615 4.201l.232.518-.824 1.101-.293 1.091.213.911.673.717.545.238 1.024.15 1.261-.114s1.109-.425 1.195-.045c.086.38.884 2.308.015 2.719-.869.411-.954 4.817-.572 4.954.382.137 1.982.602 2.825.794.843.192 1.115.246 1.74-.766.625-1.013 1.412-1.933 1.657-2.362.245-.429 1.017-3.344 1.017-3.344l-.652-2.75 1.342-.175 2.741-.745 1.003-.896.225-.812-.282-1.792-.471-.996-.688-.857-.453-.61-.243-.682.147-1.071.059-1.664-.303-1.391-.607-1.236-.863-.878-.99-.365-.684.041-.477-.051-.376-.606z" fill="#FFFFFF" data-color="1"></path>
        <path d="M148.976 90.809v-5.405l-4.705-2.045-2.031-4.798 2.183-4.861-3.693-3.855-4.783 2.082-4.776-1.808-2.013-4.947h-5.404l-1.99 4.955-4.766 1.895-4.915-2.145-3.739 3.752 2.075 4.835-2.075 4.754-5.282 2.156v5.35l4.987 1.942 2.37 4.84-2.096 5.026 2.305 2.288 2.155-.813.836 1.744 3.295-1.525 4.871 2.197 1.997 5.036h5.287l1.857-5.019 4.835-2.214 5.012 2.278 3.696-4.044-2.018-5.015 1.918-4.714 4.607-1.922zm-22.544 5.93c-4.733 0-8.571-3.867-8.571-8.637 0-4.77 3.837-8.637 8.571-8.637 4.733 0 8.571 3.867 8.571 8.637 0 4.771-3.837 8.637-8.571 8.637z" fill="#1A1A1A" data-color="2"></path>
        <path d="M159.058 150.275s-1.289-4.807-1.494-9.716c-.204-4.908-.225-7.611-.225-7.611s5.232-.115 6.578-1.563c1.346-1.447 2.608-2.675 2.551-5.366-.056-2.691-3.014-7.733-4.231-9.805s-4.213-7.094-6.471-9.134-4.925-4.217-7.208-4.006c-2.282.211-10.402.166-10.402.166s-4.472.438-7.564 3.524c-3.092 3.086-3.29 5.105-3.29 5.105l.03 30.556s.03 7.171.012 7.85h31.714z" fill="#F58F50" data-color="3"></path>
        <path fill="#FFFFFF" d="M47.404 97.603c0 7.575-6.093 13.715-13.61 13.715-7.517 0-13.61-6.14-13.61-13.715s6.093-13.715 13.61-13.715c7.517 0 13.61 6.14 13.61 13.715z" data-color="1"></path>
        <path d="M100.628 101.606s-4.784.259-8.546 1.469c-3.762 1.21-6.079 3.69-6.079 3.69l-.89-2.579s-1.21 2.506-5.875 2.871c-4.666.365-5.666-.292-5.666-.292s1.268 8.107 1.548 9.839c.28 1.732 1.256 7.727 1.849 9.355.593 1.627 2.679 8.099 8.618 6.996 0 0 4.292-.693 5.115-4.97l.529-3.235s.134 4.973-.268 8.205-2.059 14.115-3.07 17.037l-.126.323 32.571-.039s-2.116-9.882-2.604-12.409c-.488-2.527-.813-8.636-.964-10.04-.151-1.404.354-3.843.446-4.75.091-.908.292-3.746.039-5.424 0 0 1.763 1.672 3.197 3.478 1.434 1.806 2.992 3.967 3.359 5.483.367 1.517.057 3.342-2.714 5.425 0 0 1.715.043 2.839 3.289 1.124 3.246 1.591 4.226 1.532 5.691-.059 1.465-.32 2.052-.32 2.052s3.078-1.44 4.549-2.246c1.471-.806 4.036-3.422 4.867-5.051.831-1.629 1.573-4.42.737-8.29-.836-3.87-2.161-7.023-3.424-9.106-1.264-2.083-3.926-6.032-5.836-7.594-1.91-1.562-3.405-3.411-4.073-4.02-.668-.61-3.393-2.849-5.524-3.524-2.13-.674-4.437-1.268-5.726-1.408-1.288-.14-3.457-.227-3.457-.227h-6.633z" fill="#F58F50" data-color="3"></path>
        <path d="M98.917 90.884s-2.097-.635-2.622 1.673c0 0-.003 1.538 1.129 1.844 1.132.306 1.785-.065 1.785-.065s.433 2.886 1.919 3.656c0 0-.048 2.773-.387 3.614-.339.841-.851 3.07 3.019 3.605 0 0 2.446.034 3.081-.748.634-.782.938-1.304.774-1.718-.164-.413-.556-2.394-.608-3.108-.052-.715-.097-1.646-.097-1.646s1.07-.565 1.331-1.582c.26-1.018.589-2.064.589-2.064s1.373.632 2.119-.096c.746-.729.927-1.54.802-2.076-.126-.537-1.113-1.389-1.751-1.425-.639-.036-1.047.154-1.047.154l-.08-.541s-2.713-.197-4.472-1.396c-1.759-1.199-3.792-2.904-3.792-2.904s-.955 2.981-1.53 3.518l-.162 1.305z" fill="#FFFFFF" data-color="1"></path>
        <path d="m140.74 95.735-.356 5.238 5.635 6.108 1.671-6.046-.147-.967s2.213.099 2.556-2.464c.343-2.562.033-8.622.033-8.622l-6.334-2.459-4.541 4.997s-1.293.399-1.65 1.948c-.356 1.549 1.653 3.265 3.133 2.267z" fill="#FFFFFF" data-color="1"></path>
        <path d="m141.891 92.909-.336 3.186s-.229 2.661.942 3.252c1.17.59 3.278.814 4.271.72.993-.095 2.267.052 2.858-1.039.591-1.091.594-2.492.597-2.731.003-.238-.09-.811-.09-.811s-.77-.219-1.371-.174c-.601.045-1.494-.041-1.701-.025-.207.017-.607-.139-1.025-.421-.418-.282-1.411-.387-1.847-.44-.435-.053-.991.01-1.219-.667-.228-.677-.534-2.492-.534-2.492s1.064-1.038 1.326-1.948c.262-.91.464-2.085.464-2.085s1.164 1.313 2.993 1.778c1.829.465 2.913-.031 2.913-.031l.106 2.404s1.365-1.085 1.444-1.864c.079-.779.09-1.989-.819-2.158 0 0 .972-1.555.223-3.187s-2.249-2.584-3.196-2.631c-.948-.047-2.205.116-3.153.742s-2.046 2.142-2.089 2.481c0 0-2.102-.011-2.925.21s-1.717.648-2.204 1.766c-.488 1.118-.158 3.326.137 4.109.295.783.455 1.147.455 1.147s.941-.74 2.055-.438c1.115.302 1.725 1.347 1.725 1.347z" fill="#F58F50" data-color="3"></path>
        <path fill="#FFFFFF" d="m142.679 112.71-4.522-9.469 2.227-2.268 5.636 6.108 1.67-6.046 1.313 2.102.106 8.186-.295-.332.421 4.222.205 3.487-.331-.305-1.107.604h-2.129l-2.572-7.336-.622 1.047z" data-color="1"></path>
        <path d="m75.133 104.762 1.286 2.536s-2.738-.065-2.919-.849c-.182-.784 1.633-1.687 1.633-1.687z" fill="#1A1A1A" data-color="2"></path>
        <path d="m83.779 103.48-.992 2.55s1.887-.617 2.095-1.652c.001 0 .214-.708-1.103-.898z" fill="#1A1A1A" data-color="2"></path>
        <path d="M144.017 95.384s.963.51 1.007 1.173c.044.663-.193 1.144-.193 1.144s.995.437 1.782.093.729-1.077.276-1.237c-.453-.16-1.269.215-1.448-.21-.179-.425-.046-1.172-.623-1.286-.576-.114-.801.323-.801.323z" fill="#1A1A1A" data-color="2"></path>
        <path d="m122.381 132.954-1.42-.611s.094-.383.386-.289c.291.094 1.034.9 1.034.9z"></path>
        <path d="M122.876 141.483s1.91-.282 2.528-.739c0 0 .34 2.515-.566 2.428-.905-.087-1.892-1.441-1.962-1.689z" fill="#1A1A1A" data-color="2"></path>
        <path d="M138.452 120.336s1.034.109 1.226.509c0 0 .662-.54 1.602-.509.94.031 1.692.614 1.778 1.13l.834-.414s-1.182-1.861-2.525-1.791c-1.342.07-1.702.061-2.915 1.075z" fill="#1A1A1A" data-color="2"></path>
        <path fill="#1A1A1A" d="m144.017 110.603 1.604 2.093-.267 4.528.519 1.775h2.129l.987-.467.287.07-.018-3.271-1.475-2.833.314-2.643-2.077-2.774-2.003 3.522z" data-color="2"></path>
        <path d="M143.917 95.384s-.127 1.901.864 2.219h.164s.19-.767 0-1.243c-.19-.477-1.028-.976-1.028-.976z" fill="#FFFFFF" data-color="1"></path>
        <path d="M98.086 94.605s.371.962-.314.964c-.686.002-2.661.175-3.438 1.363-.777 1.188-1.078 1.844-.997 3.144.081 1.3 1.402 2.238 1.402 2.238s2.754-.726 5.889-.709c0 0 .209-.247.296-1.282.087-1.036.126-2.376.126-2.376s-1.134-.819-1.467-2.099c-.333-1.281-.375-1.513-.375-1.513s-.531.404-1.122.27z" fill="#1A1A1A" data-color="2"></path>
        <path d="M109.743 94.605s-.205.962.481.964c.685.002 2.632.285 3.409 1.472.777 1.188.917 1.649.836 2.949-.081 1.3-1.363 2.307-1.363 2.307s-2.604-.707-5.739-.691c0 0-.209-.247-.296-1.282-.087-1.036-.126-2.376-.126-2.376s1.134-.819 1.467-2.099c.333-1.281.375-1.513.375-1.513s.366.403.956.269z" fill="#1A1A1A" data-color="2"></path>
        <path d="m97.998 90.747 1.046.154.034-1.324s1.214-2.161 1.53-3.518c0 0 2.576 2.462 4.232 3.154 1.656.692 3.446 1.258 4.033 1.147l.057.387.747-.095s.274-2.494.315-3.704c.042-1.21-.571-3.285-2.224-3.908-1.653-.623-3.307-.982-5.311-.757-2.004.225-2.979 1.91-2.979 1.91s-1.488.228-1.789 2.036c-.3 1.809.309 4.518.309 4.518z" fill="#1A1A1A" data-color="2"></path>
        <path d="M143.059 121.466s-.594-1.144-1.685-1.13c-1.092.014-1.63.286-1.63.286s-1.416-.398-2.258-.094c-.843.304-1.258.429-1.258.429s-1.928-.303-2.786.61c0 0 .844 2 1.268 3.541.424 1.541.735 3.036.735 3.036s.869-.163 1.276-.652c.407-.489.765-1.461.765-1.461s.246 1.768 1.823 1.504c1.094-.183 1.362-1.374 1.362-1.784s.135-2.523.831-3.26a4.25 4.25 0 0 1 1.557-1.025z" fill="#FFFFFF" data-color="1"></path>
        <path d="M153.11 121.999s1.862-1.685 3.525-2.053c1.663-.369 3.317-.203 3.317-.203s.269-.957-.606-1.711c-.875-.754-2.198-1.031-2.198-1.031s-.785-1.193-2.823-1.204c-2.038-.011-5.217 2.764-5.217 2.764s2.664 1.665 4.002 3.438z" fill="#FFFFFF" data-color="1"></path>
        <path d="M82.787 106.03s1.06-2.583 1.52-3.92c.46-1.336 1.087-2.951.437-3.887-.65-.936-2.197-1.907-3.468-2.322-1.27-.415-1.925-.369-2.039.731-.114 1.1 1.117 2.41 2.789 3.346l-7.658 3.096s1.702 3.798 2.16 4.224c.001 0 4.884-.271 6.259-1.268z" fill="#FFFFFF" data-color="1"></path>
        <path fill="#FFFFFF" d="m71.906 103.998 14.695-5.514L79.588 79.7l-14.623 5.514 6.941 18.784z" data-color="1"></path>
        <path d="M122.779 133.282s-1.8-1.351-4.312-1.882c-2.512-.531-4.98.204-5.479.639-.5.436-1.294 1.158-.498 2.088 0 0-1.57 1.163-.596 2.556 0 0-.681.745-.316 1.282.365.537 1.177.976 2.335.953 1.158-.022 3.576-.491 4.714-.164 0 0 .217 1.926 2.593 2.554 2.376.628 4.185-.565 4.185-.565s-.599-3.483-1.233-4.844c-.634-1.361-1.393-2.617-1.393-2.617z" fill="#FFFFFF" data-color="1"></path>
        <path d="M107.501 112.038c0 .413-.332.747-.742.747s-.742-.335-.742-.747c0-.413.332-.747.742-.747s.742.334.742.747z" fill="#FFFFFF" data-color="1"></path>
        <path d="M107.501 121.344c0 .413-.332.747-.742.747s-.742-.335-.742-.747c0-.413.332-.747.742-.747s.742.334.742.747z" fill="#FFFFFF" data-color="1"></path>
        <path d="M107.501 130.674c0 .413-.332.747-.742.747s-.742-.335-.742-.747c0-.413.332-.747.742-.747s.742.335.742.747z" fill="#FFFFFF" data-color="1"></path>
        <path d="M107.501 139.98c0 .413-.332.747-.742.747s-.742-.335-.742-.747c0-.413.332-.747.742-.747s.742.334.742.747z" fill="#FFFFFF" data-color="1"></path>
        <path d="M111.835 138.406s.667 1.497 3.458 1.356l2.792-.141-.099-.914s-.65-.085-2.362.064c-1.712.148-3.53.075-3.789-.365z" fill="#1A1A1A" data-color="2"></path>
        <path d="M79.237 96.375s-.764 2.633 1.814 4.177l1.145-.415s-2.787-1.621-2.959-3.762z" opacity=".4"></path>
        <path d="M57.34 106.03s-7.919.967-10.532 5.251c0 0-1.485 1.924-1.781 3.642l17.289 1.632 1.078.814 8.326 17.571-.2 1.446-2.13 2.034-.577.17-5.272-.487-17.345-1.505s-1.345-.14-1.905-.606c-.559-.466-3.083-6.508-3.083-6.508s-1.252.323-2.116.281c-.864-.042-2.581-.224-2.581-.224s.908 2.978 1.736 4.506 3.007 5.23 5.093 6.139c2.087.91 3.468.769 3.468.769s-.068 2.903-.262 4.322-.789 4.361-1.128 4.899l31.756.091v-7.502s2.315-1.774 3.022-4.064c.708-2.29.713-5.328.694-5.773s-.047-.896-.047-.896-2.931-2.358-3.78-5.783c-.85-3.424-1.624-7.613-1.795-8.696-.171-1.083-1.18-7.091-1.18-7.091s-1.499-2.885-4.909-3.994c-3.41-1.108-5.265-.451-5.265-.451s-.604 1.333-1.975 2.432c-1.372 1.1-2.809 3.209-3.681 2.821-.872-.387-.733-2.774-.686-3.102.046-.328.084-1.339.084-1.339l-.316-.799z" fill="#1A1A1A" data-color="2"></path>
        <path d="M108.037 68.341v-3.972l-3.458-1.503-1.493-3.526 1.604-3.572-2.714-2.833-3.515 1.53-3.51-1.329-1.479-3.636h-3.971l-1.463 3.641-3.503 1.393-3.612-1.576-2.748 2.757 1.525 3.554-1.525 3.493-3.882 1.585v3.931l3.665 1.428 1.742 3.557-1.54 3.694 1.694 1.682 1.584-.597.614 1.281 2.421-1.121 3.58 1.615 1.468 3.701h3.886l1.365-3.688 3.553-1.627 3.683 1.674 2.716-2.972-1.483-3.686 1.41-3.464 3.386-1.414zm-16.568 4.358c-3.479 0-6.299-2.842-6.299-6.347 0-3.506 2.82-6.347 6.299-6.347 3.479 0 6.299 2.842 6.299 6.347 0 3.505-2.82 6.347-6.299 6.347z" fill="#F58F50" data-color="3"></path>
        <path d="M41.569 101.413c-.277 2.006-1.866 3.487-4.192 3.914-.251.046-.5.106-.806.172v2.194h-1.988v-2.205c-2.861-.319-4.487-1.823-5.089-4.411l3.116-.758c.082.213.163.405.23.602.537 1.57 2.287 2.335 3.927 1.708.756-.288 1.109-.858 1.163-1.575.049-.654-.251-1.19-.906-1.469-.847-.36-1.721-.664-2.585-.991-.456-.172-.924-.321-1.37-.513-2.241-.967-3.228-2.587-2.948-4.81.274-2.165 1.635-3.503 4.045-3.977.098-.019.193-.052.349-.094v-1.687h1.964l.045 1.664s.436.048 1.564.446c1.605.566 2.505 1.689 3.018 3.246l-2.758 1.06c-.345-.513-.622-1.028-1.003-1.468-.596-.689-1.435-.868-2.324-.644-.696.175-1.149.634-1.266 1.324-.122.717.107 1.297.838 1.62.724.32 1.474.591 2.213.88.62.243 1.256.458 1.862.728 2.322 1.035 3.235 2.637 2.901 5.044z" fill="#F58F50" data-color="3"></path>
        <path d="M110.955 95.636c.004.003 2.334 1.588 1.661 3.956-.593 2.085-1.661 2.27-1.661 2.27l2.271.333c.32-.286 1.178-1.149 1.244-2.205.081-1.3-.059-1.761-.836-2.949-.579-.884-1.807-1.267-2.679-1.405z" fill="#FEFEFE" data-color="4"></path>
        <path d="M150.864 87.364s.972-1.555.223-3.187c-.589-1.284-1.642-2.145-2.527-2.477.012.014 2.778 3.858.932 5.452-1 .863-3.033 1.934-5.266.083 0 0 1.164 1.313 2.993 1.778 1.829.465 2.913-.031 2.913-.031l.106 2.404s1.365-1.085 1.444-1.864c.08-.78.091-1.99-.818-2.158z" fill="#FFFFFF" data-color="1"></path>
        <path d="M150.133 95.486s-.374-.105-.803-.154c-.004.488.408 5.496-4.329 4.672a6.796 6.796 0 0 0 1.767.062c.993-.095 2.267.052 2.858-1.039.591-1.091.594-2.492.597-2.731.002-.237-.09-.81-.09-.81z" fill="#FFFFFF" data-color="1"></path>
        <path d="m108.873 90.36.057.387.747-.095s.274-2.494.315-3.704c.042-1.21-.571-3.285-2.224-3.908-.438-.165-.876-.31-1.321-.432 1.024 1.262 2.515 3.561 1.168 4.951-1.93 1.992-6.922-1.499-6.922-1.499l.04.117c.531.495 2.666 2.435 4.107 3.037 1.656.692 3.446 1.257 4.033 1.146z" fill="#FEFEFE" data-color="4"></path>
        <path fill="#FFFFFF" d="m145.244 108.27 1.402 2.13.131 2.27 2.4 5.511.082-2.732-1.476-2.951.314-2.643-2.224-2.774-.629 1.189z" data-color="1"></path>
        <path d="M53.124 99.86s.619-.138 1.113-.707l-.451-.516a2.396 2.396 0 0 1-.662 1.223z"></path>
        <path d="M53.76 98.252v.353a.875.875 0 0 0 .088-.344l-.088-.009z"></path>
        <path d="m64.813 123.965 5.189 11.065s.92 1.811.121 2.69c-.798.879-1.761.829-1.761.829l-23.178-1.968s-.674-.16-1.495-1.572c-.821-1.412-2.482-5.525-2.482-5.525l-5.377-11.216s-.37-2.12 1.331-2.724l23.622 2.021s.908-.031 1.616 1.252c.708 1.283 2.414 5.148 2.414 5.148z" fill="#F58F50" data-color="3"></path>
        <path d="m35.743 118.394 1.306 2.478s.331.363 1.938.332c1.608-.031 2.219-.136 2.657.26.438.397 1.101 1.232.375 2.615 0 0 .765.412.727 1.272-.037.86-.476 1.214-.476 1.214s.802.551.609 1.363c-.193.811-1.157 1.379-1.871 1.633-.714.255-3.917.294-4.498-.021-.58-.315-1.515-.496-2.163-2.181-.649-1.686-.784-3.771-.751-4.517.033-.747.287-1.9.578-2.6.291-.7 1.569-1.848 1.569-1.848z" fill="#FFFFFF" data-color="1"></path>
        <path d="M52.071 126.718c.58 1.012.514 2.145-.147 2.529-.661.385-1.667-.124-2.247-1.136-.58-1.012-.514-2.145.147-2.529.661-.385 1.667.124 2.247 1.136z" fill="#FFFFFF" data-color="1"></path>
        <path d="m37.085 115.386 1.088-.874 20.53 1.671 3.613.373s.896.355 1.48 1.626l7.924 16.76s.241 1.106-.293 1.575l-.977.893s.416-.209 0-1.37l-8.284-17.645s-.586-.623-1.213-.833l-23.868-2.176z" fill="#FFFFFF" data-color="1"></path>
        <path d="M73.265 133.513a.182.182 0 0 1-.151-.08c-1.087-1.59-3.774-4.294-4.88-5.383a.184.184 0 1 1 .257-.265c1.112 1.097 3.819 3.821 4.925 5.438.057.084.036.2-.047.258a.19.19 0 0 1-.104.032z"></path>
        <path d="M73.947 143.594c-3.1 0-6.809-1.798-10.668-5.21a.185.185 0 0 1 .243-.278c4.58 4.05 8.919 5.789 12.209 4.888 4.889-1.332 5.187-7.431 4.929-10.948a.186.186 0 0 1 .17-.199c.108-.003.19.069.197.171.266 3.631-.055 9.931-5.199 11.333a7.122 7.122 0 0 1-1.881.243z"></path>
        <path d="M46.424 141.151a7.306 7.306 0 0 1-1.547-.169c-3.906-.849-7.119-6.384-8.571-11.494a.185.185 0 0 1 .126-.229c.1-.03.2.029.227.127 1.423 5.004 4.539 10.418 8.296 11.234a6.904 6.904 0 0 0 1.844.15c.12-.017.189.072.194.174a.185.185 0 0 1-.173.196 6.566 6.566 0 0 1-.396.011z"></path>
        <path d="M74.089 110.892a.184.184 0 0 1-.166-.106c-2.31-4.896-7.836-4.829-10.106-4.572a.185.185 0 0 1-.041-.368c2.348-.267 8.067-.331 10.479 4.781a.186.186 0 0 1-.166.265z"></path>
        <path d="M45.027 114.92c-.151-.039-.206-.143-.175-.241 1.795-5.791 6.16-7.472 9.761-8.29.083-.017 1.954-.401 2.903-.474.113-.013.189.069.197.17a.185.185 0 0 1-.169.199c-.926.071-2.835.463-2.854.467-3.501.795-7.748 2.429-9.487 8.039a.186.186 0 0 1-.176.13z"></path>
        <path d="M56.194 103.899c-.132 0-.266-.008-.401-.026-.806-.109-1.422-.587-1.882-1.459-.374-.707-.649-1.525-.865-2.572a.185.185 0 0 1 .142-.219.184.184 0 0 1 .217.143c.209 1.012.473 1.797.83 2.473.401.759.927 1.174 1.607 1.266.418.058.886.01 1.48-.147a21.566 21.566 0 0 0 2.029-.646c.094-.038.2.01.238.106a.186.186 0 0 1-.105.24c-.597.234-1.469.499-2.068.659a4.855 4.855 0 0 1-1.222.182z"></path>
        <path d="M61.677 99.181a2.09 2.09 0 0 1-.632-.098.187.187 0 0 1-.12-.233.19.19 0 0 1 .231-.121 1.722 1.722 0 0 0 1.999-.752c.242-.397.316-.866.208-1.319a1.733 1.733 0 0 0-2.089-1.291c-.337.082-.639.26-.872.518a.182.182 0 0 1-.26.011.186.186 0 0 1-.011-.262 2.084 2.084 0 0 1 1.058-.627 2.076 2.076 0 0 1 1.588.254c.478.296.813.761.944 1.311a2.11 2.11 0 0 1-.253 1.599 2.09 2.09 0 0 1-1.791 1.01z"></path>
        <path d="M62.26 98.143a.191.191 0 0 1-.086-.021l-1.445-.768a.185.185 0 0 1-.047-.292l1.225-1.296a.185.185 0 0 1 .26-.006c.073.07.076.188.006.262l-1.058 1.118 1.23.654c.09.048.124.16.077.25a.181.181 0 0 1-.162.099z"></path>
        <path d="M77.174 150.451a.187.187 0 0 1-.184-.194c.122-2.545.001-7.439 0-7.488a.186.186 0 0 1 .179-.19.189.189 0 0 1 .188.181c.001.049.123 4.956 0 7.515a.183.183 0 0 1-.183.176z"></path>
        <path d="M68.215 127.789a.184.184 0 0 1-.177-.135c-1.364-4.857-1.244-12.067-1.243-12.139a.188.188 0 0 1 .187-.182.184.184 0 0 1 .18.189c-.001.072-.12 7.228 1.23 12.031a.187.187 0 0 1-.177.236z"></path>
        <path d="M54.701 99.798a.176.176 0 0 1-.077-.017c-.31-.143-.964-.656-1.109-1.125a.527.527 0 0 1 .036-.437c.213-.36.718-.239 1.053-.158l.117.027c-.005-.391-.039-1.427-.065-2.1a.185.185 0 0 1 .177-.192c.1-.005.186.076.191.178.013.351.078 2.113.062 2.294a.268.268 0 0 1-.091.161c-.11.081-.256.045-.477-.009-.202-.048-.575-.138-.652-.013-.007.012-.028.048-.001.137.101.327.651.779.911.899a.184.184 0 0 1 .09.245.177.177 0 0 1-.165.11z"></path>
        <path d="M56.058 101.068c-.075 0-.153-.004-.233-.011a.186.186 0 0 1-.166-.202.184.184 0 0 1 .201-.167c.428.043.754-.047.971-.261.366-.362.324-.972.323-.978a.185.185 0 0 1 .169-.199c.104-.014.19.069.197.171.002.032.054.789-.432 1.271-.253.249-.599.376-1.03.376z"></path>
        <path d="M34.8 107.879h-1.987a.184.184 0 0 1-.184-.185v-2.04c-2.794-.36-4.458-1.845-5.084-4.534a.185.185 0 0 1 .136-.222l3.116-.758c.086-.024.18.027.215.113l.072.184c.057.145.112.284.161.425.233.681.72 1.225 1.373 1.534.714.337 1.536.359 2.316.062.641-.245.992-.721 1.044-1.416.045-.6-.229-1.044-.794-1.285a41.55 41.55 0 0 0-1.835-.711 66.32 66.32 0 0 1-.743-.277c-.157-.059-.316-.115-.474-.172a14.663 14.663 0 0 1-.904-.344c-2.321-1.002-3.35-2.685-3.058-5.004.285-2.252 1.696-3.644 4.193-4.136.06-.012.119-.029.194-.051.006-.002.006-1.549.006-1.549 0-.102.082-.185.184-.185h1.963c.099 0 .181.08.184.18l.041 1.513c.218.045.674.156 1.445.428 1.563.552 2.558 1.621 3.131 3.363a.187.187 0 0 1-.109.232l-2.759 1.06a.184.184 0 0 1-.217-.069 19.702 19.702 0 0 1-.313-.485c-.219-.346-.424-.674-.676-.965-.661-.764-1.529-.739-2.141-.586-.636.16-1.026.566-1.129 1.175-.116.687.122 1.151.73 1.419.517.228 1.058.436 1.58.636.209.08.418.16.625.242.209.082.419.16.63.239.41.153.833.311 1.239.492 2.4 1.069 3.356 2.733 3.009 5.239l-.182-.026.182.026c-.286 2.072-1.95 3.632-4.342 4.07-.165.03-.329.067-.508.107l-.146.032v2.045a.184.184 0 0 1-.184.184zm-1.803-.371h1.62v-2.009c0-.087.061-.163.146-.181l.289-.063c.185-.041.353-.078.522-.11 2.264-.415 3.775-1.819 4.043-3.757.321-2.316-.568-3.857-2.794-4.849-.396-.176-.814-.332-1.219-.484a34.463 34.463 0 0 1-.634-.241l-.623-.241c-.527-.202-1.073-.411-1.597-.643-.763-.337-1.09-.966-.945-1.821.128-.754.625-1.278 1.402-1.472 1.005-.256 1.897-.005 2.507.701.27.313.483.651.71 1.01.074.117.148.236.226.354l2.455-.943c-.542-1.525-1.45-2.469-2.847-2.962-1.084-.382-1.52-.436-1.524-.437a.186.186 0 0 1-.163-.179l-.04-1.484H32.93V89.2a.186.186 0 0 1-.136.179l-.137.038c-.087.025-.156.045-.225.059-2.324.457-3.636 1.742-3.899 3.819-.269 2.135.686 3.687 2.839 4.616.285.123.588.232.881.336.161.057.322.114.481.175.246.093.493.184.741.276.611.225 1.242.459 1.851.717.704.3 1.075.902 1.018 1.654-.063.838-.506 1.438-1.28 1.734-.872.333-1.796.308-2.603-.073a2.987 2.987 0 0 1-1.564-1.748 8.038 8.038 0 0 0-.155-.409c-.014-.036-2.795.64-2.795.64.631 2.456 2.231 3.794 4.887 4.091.093.01.164.09.164.184v2.02z"></path>
        <path d="M33.794 109.948c-6.01 0-11.217-4.508-12.113-10.487a.184.184 0 0 1 .154-.21c.094-.023.194.054.209.156.869 5.799 5.92 10.172 11.749 10.172 6.552 0 11.883-5.372 11.883-11.975S40.345 85.63 33.793 85.63c-3.713 0-7.145 1.701-9.415 4.668a.185.185 0 0 1-.258.034.187.187 0 0 1-.034-.26c2.341-3.058 5.879-4.812 9.707-4.812 6.755 0 12.251 5.538 12.251 12.345.001 6.805-5.495 12.343-12.25 12.343z"></path>
        <path d="M82.766 106.285c-.151-.038-.205-.141-.176-.24.034-.111.836-2.745 1.725-4.343.894-1.606.716-3.043.094-3.579-.832-.718-3.57-2.674-4.573-2.271-.209.083-.328.28-.362.599-.215 2.014 3.343 3.834 3.378 3.852a.186.186 0 0 1-.165.332c-.156-.079-3.821-1.955-3.579-4.224.061-.575.356-.809.592-.903 1.443-.573 4.914 2.305 4.948 2.334.875.755.87 2.454-.012 4.041-.87 1.563-1.687 4.243-1.695 4.27a.182.182 0 0 1-.175.132z"></path>
        <path d="M76.476 107.483a.183.183 0 0 1-.155-.085c-.91-1.435-2.072-4.136-2.121-4.25a.186.186 0 0 1 .095-.244.183.183 0 0 1 .242.096c.012.028 1.2 2.789 2.094 4.197a.186.186 0 0 1-.155.286z"></path>
        <path d="M79.539 104.076a.184.184 0 0 1-.178-.137c-.33-1.229-1.206-2.199-1.214-2.208a.185.185 0 1 1 .27-.252c.039.042.945 1.043 1.3 2.362a.187.187 0 0 1-.178.235z"></path>
        <path d="M124.884 143.357a.185.185 0 0 1-.065-.358c12.685-4.818 11.661-12.801 8.986-19.974-2.842-7.621-6.985-11.448-10.01-14.243-.516-.477-.999-.922-1.436-1.351-3.602-3.531-9.246-5.64-15.099-5.64a.184.184 0 0 1-.184-.185c0-.102.082-.185.184-.185 5.946 0 11.686 2.147 15.355 5.745.435.426.915.869 1.428 1.344 3.053 2.82 7.233 6.682 10.105 14.385 2.739 7.345 3.787 15.518-9.201 20.451a.194.194 0 0 1-.063.011z"></path>
        <path d="M86.003 106.949a.186.186 0 0 1-.12-.326c4.963-4.3 10.819-5.203 14.857-5.203.102 0 .184.083.184.185a.184.184 0 0 1-.184.185c-3.976 0-9.74.887-14.618 5.114a.179.179 0 0 1-.119.045z"></path>
        <path d="M127.303 112.055c-.152-.039-.206-.143-.175-.241 1.81-5.788 7.724-8.648 11.152-8.759a.185.185 0 0 1 .012.371c-3.322.107-9.056 2.883-10.812 8.499a.188.188 0 0 1-.177.13z"></path>
        <path d="M179.816 150.5H20.184a.184.184 0 0 1-.184-.185c0-.102.082-.185.184-.185h159.632c.102 0 .184.083.184.185a.184.184 0 0 1-.184.185z"></path>
        <path d="M135.579 120.808c-.122-.013-.194-.105-.183-.206.33-2.871-.271-6.493-.276-6.53a.184.184 0 0 1 .15-.213c.095-.024.195.05.212.152.006.037.616 3.711.28 6.634a.185.185 0 0 1-.183.163z"></path>
        <path d="M161.699 78.107c-.1 0-.182-.08-.184-.181a19.238 19.238 0 0 0-.167-2.106.185.185 0 0 1 .158-.208.187.187 0 0 1 .207.159c.098.727.154 1.449.17 2.147a.184.184 0 0 1-.18.189h-.004zm-.561-4.224a.185.185 0 0 1-.179-.142 21.248 21.248 0 0 0-.594-2.027.185.185 0 0 1 .113-.236c.095-.033.2.018.234.114.234.675.438 1.369.604 2.062a.185.185 0 0 1-.178.229zm-1.395-4.018a.183.183 0 0 1-.167-.107 21.999 21.999 0 0 0-.976-1.872.184.184 0 0 1 .065-.253.18.18 0 0 1 .251.066c.359.614.693 1.254.993 1.903a.187.187 0 0 1-.089.247.2.2 0 0 1-.077.016zm-2.141-3.671a.184.184 0 0 1-.149-.077 23.162 23.162 0 0 0-1.304-1.657.186.186 0 0 1 .019-.261.182.182 0 0 1 .259.019c.469.544.915 1.11 1.324 1.682a.187.187 0 0 1-.041.259.18.18 0 0 1-.108.035zm-2.766-3.216a.178.178 0 0 1-.128-.053c-.494-.484-1.02-.96-1.562-1.414a.186.186 0 0 1-.024-.261.184.184 0 0 1 .259-.024c.549.46 1.082.942 1.583 1.433a.186.186 0 0 1-.128.319zm-3.247-2.724a.186.186 0 0 1-.107-.034 31.936 31.936 0 0 0-1.751-1.173.185.185 0 0 1-.059-.254.181.181 0 0 1 .253-.06c.611.38 1.207.78 1.771 1.185a.186.186 0 0 1-.107.336zm-41.654-.295a.183.183 0 0 1-.144-.07.186.186 0 0 1 .03-.26c.025-.02.634-.505 1.77-1.215a.183.183 0 0 1 .253.059.186.186 0 0 1-.059.255c-1.116.698-1.73 1.185-1.736 1.191a.182.182 0 0 1-.114.04zm38.063-1.948a.179.179 0 0 1-.087-.022c-.6-.326-1.233-.646-1.88-.952a.186.186 0 0 1-.088-.247.183.183 0 0 1 .245-.089c.652.308 1.29.632 1.898.961a.186.186 0 0 1-.088.349zm-34.475-.321a.183.183 0 0 1-.162-.098.186.186 0 0 1 .076-.251 36.799 36.799 0 0 1 1.905-.956.185.185 0 0 1 .154.336c-.64.298-1.274.617-1.886.947a.181.181 0 0 1-.087.022zm30.65-1.493a.194.194 0 0 1-.07-.014 46.598 46.598 0 0 0-1.613-.63c-.117-.044-.235-.086-.353-.129a.186.186 0 0 1-.111-.237.184.184 0 0 1 .235-.112 46.562 46.562 0 0 1 1.982.765.185.185 0 0 1-.07.357zm-26.809-.298a.186.186 0 0 1-.068-.357 37.531 37.531 0 0 1 1.999-.731.185.185 0 0 1 .116.352 36.81 36.81 0 0 0-1.98.723.174.174 0 0 1-.067.013zm22.821-1.12a43.274 43.274 0 0 0-2.088-.543.185.185 0 0 1 .083-.362c.686.159 1.378.341 2.057.542a.186.186 0 0 1 .125.23.185.185 0 0 1-.177.133zm-18.803-.217a.185.185 0 0 1-.048-.364c.684-.184 1.38-.349 2.071-.492a.182.182 0 0 1 .217.144c.02.1-.043.198-.143.218-.683.142-1.373.306-2.049.488a.197.197 0 0 1-.048.006zm14.681-.736a35.79 35.79 0 0 0-2.116-.288.184.184 0 0 1-.163-.204c.01-.102.091-.179.202-.165.703.074 1.411.171 2.108.288.1.017.167.113.151.214a.185.185 0 0 1-.182.155zm-10.537-.12a.184.184 0 0 1-.182-.159.187.187 0 0 1 .156-.21 34.352 34.352 0 0 1 2.114-.239c.101-.023.19.068.198.17a.186.186 0 0 1-.169.2c-.691.056-1.394.135-2.091.237l-.026.001zm6.331-.323a33.353 33.353 0 0 0-2.112-.024.185.185 0 0 1-.008-.37 33.734 33.734 0 0 1 2.127.023.186.186 0 0 1-.007.371z"></path>
        <path d="M35.567 83.391c-.1 0-.182-.08-.184-.181l-.002-.196c0-.404.022-1.072.126-1.962a.18.18 0 0 1 .204-.162.185.185 0 0 1 .161.206 16.799 16.799 0 0 0-.124 1.919l.002.186a.185.185 0 0 1-.179.19h-.004zm.475-4.236c-.138-.026-.201-.124-.18-.224.148-.69.331-1.389.544-2.078a.182.182 0 0 1 .23-.122c.097.03.151.134.121.232a24.47 24.47 0 0 0-.535 2.046.186.186 0 0 1-.18.146zm1.253-4.069a.185.185 0 0 1-.17-.256c.267-.658.567-1.315.89-1.952a.182.182 0 0 1 .247-.08c.09.046.126.158.079.249a25.354 25.354 0 0 0-.877 1.923.179.179 0 0 1-.169.116zm1.927-3.792a.186.186 0 0 1-.156-.283c.371-.601.775-1.198 1.2-1.774a.183.183 0 0 1 .257-.038.185.185 0 0 1 .038.259 25.675 25.675 0 0 0-1.183 1.749.184.184 0 0 1-.156.087zm2.519-3.42a.185.185 0 0 1-.139-.307c.463-.533.955-1.057 1.462-1.558a.183.183 0 0 1 .26.002c.071.073.07.19-.002.262a27.808 27.808 0 0 0-1.443 1.537.179.179 0 0 1-.138.064zm3.017-2.981a.186.186 0 0 1-.119-.327 30.477 30.477 0 0 1 1.67-1.327.182.182 0 0 1 .257.039.186.186 0 0 1-.039.259c-.568.42-1.123.861-1.651 1.311a.173.173 0 0 1-.118.045zm3.403-2.524a.186.186 0 0 1-.099-.341 36.392 36.392 0 0 1 1.824-1.1.183.183 0 0 1 .25.072.186.186 0 0 1-.071.252c-.621.35-1.228.716-1.805 1.088a.178.178 0 0 1-.099.029zm25.928-1.794a.184.184 0 0 1-.111-.038c-.007-.005-.64-.487-1.796-1.063a.185.185 0 0 1-.083-.248.182.182 0 0 1 .246-.084c1.191.593 1.829 1.08 1.855 1.1a.186.186 0 0 1-.111.333zm-22.239-.286a.183.183 0 0 1-.165-.104.187.187 0 0 1 .084-.248 31.645 31.645 0 0 1 1.944-.873.185.185 0 0 1 .138.343c-.638.261-1.284.551-1.921.862a.166.166 0 0 1-.08.02zm3.92-1.597a.186.186 0 0 1-.056-.362 26.86 26.86 0 0 1 2.051-.579c.1-.023.198.038.221.137.024.1-.037.2-.136.223-.669.16-1.35.352-2.024.571a.162.162 0 0 1-.056.01zm14.545-.028a.173.173 0 0 1-.062-.011 20.15 20.15 0 0 0-2.008-.605.187.187 0 0 1-.136-.224.184.184 0 0 1 .222-.137c.694.17 1.382.377 2.045.617a.186.186 0 0 1 .111.237.182.182 0 0 1-.172.123zm-10.431-.951a.184.184 0 0 1-.182-.158.184.184 0 0 1 .154-.21 23.436 23.436 0 0 1 2.121-.221c.107-.027.188.072.194.174a.185.185 0 0 1-.172.196c-.689.041-1.391.114-2.088.218l-.027.001zm6.326-.057a21.893 21.893 0 0 0-2.114-.185.185.185 0 0 1-.177-.192c.004-.102.075-.174.191-.178.712.027 1.427.09 2.126.186a.185.185 0 0 1-.026.369z"></path>
        <path d="M101.431 90.905c.147-.023.245.04.287.573.047.594-.106.699-.238.694-.132-.005-.265-.189-.259-.613.007-.425.018-.623.21-.654z"></path>
        <path d="M106.469 90.954c.147-.019.244.047.272.58.032.595-.124.696-.256.687-.132-.009-.26-.196-.242-.62.017-.423.033-.622.226-.647z"></path>
        <path d="M144.694 91.566c.147-.023.245.04.287.573.047.594-.106.699-.238.694-.132-.005-.265-.189-.259-.613.007-.425.018-.624.21-.654z"></path>
        <path d="M148.99 91.614c.147-.019.244.046.272.58.031.595-.124.696-.256.687-.132-.009-.26-.196-.242-.62.017-.423.033-.621.226-.647z"></path>
        <path d="M98.208 94.794a2.113 2.113 0 0 1-2.097-2.249 2.106 2.106 0 0 1 2.227-1.978c.225.014.442.063.647.145.094.038.14.146.103.241a.18.18 0 0 1-.239.103 1.722 1.722 0 0 0-.533-.12 1.68 1.68 0 0 0-1.254.433 1.737 1.737 0 0 0-.583 1.199 1.743 1.743 0 0 0 1.62 1.852c.314.019.628-.046.906-.192a.185.185 0 0 1 .248.08.187.187 0 0 1-.079.25c-.299.155-.63.236-.966.236z"></path>
        <path d="M97.785 93.843a.186.186 0 0 1-.112-.332l1.101-.857-1.233-.92a.185.185 0 0 1-.038-.259.183.183 0 0 1 .257-.038l1.428 1.065a.184.184 0 0 1 .074.147.184.184 0 0 1-.071.148l-1.293 1.006a.182.182 0 0 1-.113.04z"></path>
        <path d="M109.833 94.794c-.336 0-.667-.081-.966-.237a.187.187 0 0 1-.079-.25.187.187 0 0 1 .248-.08 1.721 1.721 0 0 0 2.097-.395c.306-.35.459-.799.43-1.264a1.737 1.737 0 0 0-.583-1.199 1.729 1.729 0 0 0-1.823-.298.181.181 0 0 1-.241-.098.185.185 0 0 1 .097-.243c.219-.094.451-.149.69-.163a2.05 2.05 0 0 1 1.52.524c.421.374.672.89.707 1.454a2.116 2.116 0 0 1-.52 1.532 2.079 2.079 0 0 1-1.577.717z"></path>
        <path d="M110.256 93.843a.182.182 0 0 1-.112-.039l-1.293-1.006a.184.184 0 0 1-.071-.148c0-.058.028-.113.074-.147l1.428-1.065a.183.183 0 0 1 .257.038.185.185 0 0 1-.038.259l-1.233.92 1.101.857a.186.186 0 0 1 .033.26.186.186 0 0 1-.146.071z"></path>
        <path d="M140.474 101.255a.187.187 0 0 1-.184-.194l.267-5.335a.186.186 0 0 1 .193-.176c.102.005.18.093.175.194l-.267 5.335a.185.185 0 0 1-.184.176z"></path>
        <path d="M147.108 100.262c-.159 0-.318-.003-.473-.006l-.402-.006c-.936-.005-1.701-.082-2.407-.242-.665-.151-1.418-.321-1.866-.991-.454-.675-.549-1.553-.581-2.242a8.848 8.848 0 0 1 .032-1.309c.11-.911.262-2.269.292-2.533a2.06 2.06 0 0 0-.596-.816 2.027 2.027 0 0 0-2.865.283 2.049 2.049 0 0 0-.453 1.502 2.04 2.04 0 0 0 .734 1.385 2.014 2.014 0 0 0 2.531.043.184.184 0 0 1 .258.034.187.187 0 0 1-.034.26 2.375 2.375 0 0 1-2.988-.051 2.409 2.409 0 0 1-.866-1.635 2.416 2.416 0 0 1 .535-1.774 2.39 2.39 0 0 1 3.382-.333c.325.269.574.619.722 1.012.01.027.014.057.011.086 0 0-.175 1.567-.297 2.579-.04.38-.05.802-.03 1.25.03.641.115 1.452.517 2.051.367.548 1.016.695 1.643.837.679.154 1.419.228 2.328.233l.407.006c1.071.021 2.177.042 2.803-.919.59-.906.594-2.096.597-3.246.001-.254.001-.503.009-.743.024-.771-.102-5.939-.103-5.991a.186.186 0 0 1 .179-.19c.104.007.186.078.188.181.005.213.128 5.23.103 6.011-.007.237-.008.483-.009.733-.004 1.148-.007 2.45-.658 3.449-.632.974-1.658 1.092-2.643 1.092z"></path>
        <path d="M150.1 90.933a.182.182 0 0 1-.166-.106c-.018-.036-.338-.652-1.327-.391a.178.178 0 0 1-.224-.132.185.185 0 0 1 .131-.226c1.306-.348 1.748.583 1.754.592a.185.185 0 0 1-.168.263z"></path>
        <path d="M143.762 91.038a.184.184 0 0 1-.144-.299c1.065-1.37 2.219-.65 2.231-.643.085.056.11.17.056.256a.184.184 0 0 1-.253.057c-.036-.022-.89-.541-1.744.559a.19.19 0 0 1-.146.07z"></path>
        <path d="M147.592 101.22a.184.184 0 0 1-.184-.185v-.968a.184.184 0 1 1 .368 0v.968a.184.184 0 0 1-.184.185z"></path>
        <path d="M138.239 92.185a.207.207 0 0 1-.07-.013c-.124-.049-.762-.456-1.121-3.672-.207-1.853.822-3.18 1.945-3.532 1.377-.433 3.022-.33 3.492-.286 1.093-2.109 2.503-2.904 3.502-3.2a4.288 4.288 0 0 1 3.436.433c1.095.65 1.776 1.487 2.022 2.488.291 1.18-.099 2.266-.337 2.776.233.056.449.256.608.576.468.948.341 2.814-1.418 3.81a.18.18 0 0 1-.25-.07.185.185 0 0 1 .07-.252c1.552-.879 1.675-2.502 1.27-3.322-.057-.114-.259-.48-.521-.363a.182.182 0 0 1-.212-.048.187.187 0 0 1-.018-.219c.008-.013.81-1.356.452-2.801-.223-.9-.846-1.658-1.851-2.255a3.924 3.924 0 0 0-3.146-.397c-.947.28-2.294 1.049-3.336 3.125a.183.183 0 0 1-.185.101c-.019-.002-1.953-.216-3.469.258-.792.249-1.895 1.289-1.689 3.138.334 2.988.899 3.372.905 3.375.095.037.134.141.096.237a.185.185 0 0 1-.175.113z"></path>
        <path d="M147.061 95.473a.184.184 0 0 1-.184-.185c0-.102.082-.185.184-.185.394 0 1.09-.077 1.28-.281.033-.035.036-.061.035-.083-.01-.145-.11-.411-.225-.718-.285-.755-.715-1.896-.447-2.991a.181.181 0 0 1 .223-.136.186.186 0 0 1 .134.225c-.241.982.149 2.015.434 2.77.131.349.235.624.248.825a.475.475 0 0 1-.133.36c-.361.387-1.429.399-1.549.399z"></path>
        <path d="M145.81 98.162c-.443 0-.881-.144-1.255-.423-.514-.382-.825-1.028-.83-1.729-.003-.471.135-.86.371-1.041.221-.17.474-.213.712-.12.296.116.523.428.592.815.087.493.133.527.233.601.1.075.144.109.639.047.385-.047.75.077.948.328.158.201.193.457.097.721-.11.303-.457.575-.906.711a2.08 2.08 0 0 1-.601.09zm-1.253-2.99a.39.39 0 0 0-.238.092c-.115.089-.229.352-.227.743.005.585.259 1.121.68 1.434a1.71 1.71 0 0 0 1.531.277c.38-.115.612-.331.667-.483.052-.142.038-.265-.04-.364-.117-.148-.357-.224-.615-.19-.584.073-.712.026-.903-.117-.191-.142-.273-.251-.377-.834-.045-.257-.188-.467-.363-.535a.306.306 0 0 0-.115-.023z"></path>
        <path d="M144.88 97.916a.186.186 0 0 1-.161-.276c.684-1.233-.733-2.061-.793-2.095a.187.187 0 0 1-.069-.253.185.185 0 0 1 .251-.07c.624.356 1.621 1.358.933 2.599a.185.185 0 0 1-.161.095z"></path>
        <path d="M139.112 95.051a.185.185 0 0 1-.082-.351l1.497-.747-1.39-1.432a.187.187 0 0 1 .003-.262.184.184 0 0 1 .26.003l1.567 1.614c.041.043.06.102.049.161a.183.183 0 0 1-.099.135l-1.724.86a.175.175 0 0 1-.081.019z"></path>
        <path d="M143.493 86.193a.18.18 0 0 1-.143-.069l-.902-1.129a.185.185 0 0 1 .028-.26.181.181 0 0 1 .258.028l.902 1.129a.185.185 0 0 1-.143.301z"></path>
        <path d="M156.28 100.682a.186.186 0 0 1-.184-.185V94.1c0-.022.004-.044.011-.065a3.57 3.57 0 0 1-.011-.275v-6.191c0-1.912 1.544-3.468 3.442-3.468h14.385c1.898 0 3.442 1.556 3.442 3.468v6.191c0 1.913-1.544 3.469-3.442 3.469a.184.184 0 0 1-.184-.185c0-.102.082-.185.184-.185 1.696 0 3.075-1.39 3.075-3.098V87.57c0-1.708-1.379-3.098-3.075-3.098h-14.385c-1.695 0-3.074 1.39-3.074 3.098v6.191c0 .112.007.223.018.331a.186.186 0 0 1-.018.102v5.964l5.058-3.269a.184.184 0 0 1 .099-.029h8.117c.102 0 .184.083.184.185a.184.184 0 0 1-.184.185h-8.063l-5.296 3.423a.184.184 0 0 1-.099.029z"></path>
        <path d="M173.094 89.094h-3.356c-.102 0-.184-.083-.184-.185s.082-.185.184-.185h3.356a.185.185 0 0 1 0 .37z"></path>
        <path d="M165.697 89.094h-5.422c-.102 0-.184-.083-.184-.185s.082-.185.184-.185h5.422c.102 0 .184.083.184.185s-.082.185-.184.185z"></path>
        <path d="M173.094 92.577h-12.819a.184.184 0 0 1-.184-.185c0-.102.082-.185.184-.185h12.819c.102 0 .184.083.184.185a.186.186 0 0 1-.184.185z"></path>
        <path d="M84.301 133.256c-6.535 0-8.05-8.785-8.558-11.73-.744-4.307-2.402-15.045-2.419-15.153a.185.185 0 0 1 .153-.212.182.182 0 0 1 .21.154c.016.108 1.675 10.844 2.418 15.147.509 2.95 2.041 11.912 8.768 11.401 2.992-.236 6.167-2.605 6.107-8.547a.185.185 0 0 1 .182-.187c.102 0 .184.082.186.184.062 6.197-3.289 8.671-6.447 8.92a8.187 8.187 0 0 1-.6.023z"></path>
        <path d="M89.233 121.788a.185.185 0 0 1-.183-.169c-.232-2.584-.709-4.981-1.07-6.537-1.426-6.161-3.25-10.972-3.268-11.02a.185.185 0 0 1 .106-.239.182.182 0 0 1 .237.106c.019.048 1.852 4.881 3.284 11.068.362 1.568.843 3.984 1.078 6.589a.185.185 0 0 1-.167.201l-.017.001z"></path>
        <path d="M104.019 98.947c-.922 0-2.242-.177-3.295-1.02-.811-.65-1.348-1.692-1.641-3.188-.194-.991-.236-4.109-.22-5.126a.184.184 0 0 1 .184-.182.186.186 0 0 1 .184.188c-.018 1.094.033 4.13.213 5.048.275 1.406.769 2.378 1.509 2.97.97.777 2.203.94 3.066.94a.185.185 0 0 1 0 .37z"></path>
        <path d="M104.019 98.947a.184.184 0 0 1-.184-.185c0-.102.082-.185.184-.185.864 0 2.096-.163 3.066-.94.741-.592 1.234-1.564 1.51-2.97.193-.985.199-3.44.184-4.303a.184.184 0 0 1 .181-.188c.103 0 .185.081.187.182.014.874.008 3.364-.191 4.381-.293 1.495-.83 2.538-1.641 3.188-1.054.843-2.374 1.02-3.296 1.02z"></path>
        <path d="M108.715 90.551c-3.494 0-7.082-3.302-8.001-4.208-.232.741-.873 2.648-1.529 3.396a.185.185 0 1 1-.276-.246c.752-.856 1.535-3.524 1.543-3.551a.183.183 0 0 1 .309-.076c.042.044 4.151 4.315 7.958 4.315.075 0 .15-.002.224-.005.1.003.188.075.192.177a.185.185 0 0 1-.175.194 9.927 9.927 0 0 1-.245.004z"></path>
        <path d="M104.06 105.405c-1.483 0-2.848-.62-3.479-1.58-.322-.49-.396-1.005-.208-1.451.468-1.113.57-4.356.571-4.388.003-.101.069-.184.19-.18a.185.185 0 0 1 .178.191c-.004.136-.105 3.345-.6 4.522-.138.327-.075.719.176 1.101.463.703 1.622 1.414 3.172 1.414 1.483 0 2.621-.436 3.121-1.197.271-.413.325-.894.146-1.319-.495-1.176-.596-4.386-.6-4.522a.185.185 0 0 1 .178-.191c.105 0 .187.08.189.18.001.033.103 3.276.571 4.388.228.542.163 1.149-.178 1.667-.334.512-1.224 1.365-3.427 1.365z"></path>
        <path d="M98.086 90.933a.185.185 0 0 1-.176-.131c-.047-.154-1.14-3.803-.023-5.716a2.18 2.18 0 0 1 1.414-1.057c.222-.303 1.261-1.598 3.038-1.913 2.531-.447 6.533.184 7.512 2.99.439 1.258.441 2.695.008 5.491a.178.178 0 0 1-.21.154.184.184 0 0 1-.153-.212c.422-2.728.424-4.118.008-5.312-.908-2.601-4.701-3.172-7.101-2.747-1.815.321-2.831 1.802-2.841 1.817a.188.188 0 0 1-.114.077 1.805 1.805 0 0 0-1.243.898c-1.035 1.772.047 5.383.058 5.42a.186.186 0 0 1-.177.241z"></path>
        <path d="M120.353 150.5a.183.183 0 0 1-.165-.104c-.437-.894-1.551-6.244-2.383-11.448a.186.186 0 0 1 .152-.213.183.183 0 0 1 .211.153c.889 5.56 1.974 10.575 2.35 11.344a.186.186 0 0 1-.165.268z"></path>
        <path d="M116.989 131.443a.184.184 0 0 1-.183-.168c-.318-3.432-.311-5.745.024-7.279 1.182-5.408-.717-10.795-.737-10.849a.185.185 0 0 1 .111-.237c.094-.034.2.015.236.111.019.055 1.954 5.544.749 11.055-.326 1.495-.332 3.773-.016 7.165a.186.186 0 0 1-.166.202h-.018z"></path>
        <path d="M87.766 150.5a.186.186 0 0 1-.165-.267c.927-1.894 4.512-20.751 3.329-26.157-1.205-5.512.73-11 .75-11.055a.184.184 0 1 1 .346.126c-.019.054-1.918 5.445-.737 10.849 1.193 5.458-2.423 24.49-3.358 26.401a.185.185 0 0 1-.165.103z"></path>
        <path d="M76.481 107.483c-1.685 0-3.013-.325-3.152-1.101-.109-.61.472-1.211 1.728-1.788a.183.183 0 0 1 .243.092.186.186 0 0 1-.091.245c-1.053.484-1.592.976-1.518 1.384.128.717 2.55 1.1 5.82.506 1.514-.276 2.903-.709 3.912-1.219.918-.464 1.428-.953 1.364-1.308-.04-.221-.195-.469-1.041-.632a.184.184 0 0 1-.146-.216.18.18 0 0 1 .215-.147c.848.162 1.247.44 1.335.929.099.55-.441 1.14-1.561 1.706-1.04.525-2.465.97-4.012 1.252a17.79 17.79 0 0 1-3.096.297z"></path>
        <path d="M124.728 143.383c-.641 0-1.431-.852-1.994-1.717a.185.185 0 1 1 .308-.204c.75 1.153 1.461 1.642 1.782 1.535.684-.238.693-2.708-.388-5.874-1.081-3.166-2.6-5.103-3.281-4.871a.18.18 0 0 1-.233-.115.185.185 0 0 1 .114-.235c1.163-.405 2.801 2.327 3.747 5.101.948 2.773 1.326 5.94.16 6.344a.651.651 0 0 1-.215.036z"></path>
        <path d="M71.906 104.184a.188.188 0 0 1-.173-.121l-6.941-18.784a.185.185 0 0 1 .108-.239l14.695-5.514a.187.187 0 0 1 .237.109l6.941 18.784a.187.187 0 0 1-.108.239l-1.489.559a.187.187 0 0 1-.237-.109.186.186 0 0 1 .108-.238l1.316-.494L79.55 79.94 65.2 85.325l6.813 18.437 10.109-3.794c.094-.033.2.014.237.109a.186.186 0 0 1-.108.238l-10.282 3.858a.185.185 0 0 1-.063.011z"></path>
        <path d="M100.16 90.335a.184.184 0 0 1-.172-.248c.33-.915 1.588-1.178 2.335-1.009a.185.185 0 0 1-.081.361c-.612-.138-1.663.094-1.91.775a.183.183 0 0 1-.172.121z"></path>
        <path d="M104.275 96.373c-.429 0-.778-.112-.803-.12a.186.186 0 0 1-.118-.233.186.186 0 0 1 .232-.119c.01.004.898.288 1.474-.108.303-.208.472-.577.505-1.098a.183.183 0 0 1 .195-.173.183.183 0 0 1 .172.196c-.04.642-.264 1.107-.666 1.382-.309.211-.672.273-.991.273z"></path>
        <path d="M94.731 102.413a.185.185 0 0 1-.103-.031 3.534 3.534 0 0 1-1.355-4.036c.313-.931.99-1.774 1.859-2.314a4.436 4.436 0 0 1 2.34-.665c.086-.001.128.005.187.009.219.018.222.007.252-.091.035-.114.021-.266.007-.413-.008-.093-.017-.184-.016-.27a.184.184 0 1 1 .368.005c-.001.074.007.152.014.231.016.175.035.372-.022.556-.12.391-.428.367-.633.352-.048-.003-.099-.008-.152-.008-.756 0-1.518.217-2.152.61-.797.495-1.418 1.266-1.704 2.117a3.162 3.162 0 0 0 1.212 3.609.186.186 0 0 1-.102.339z"></path>
        <path d="M113.062 102.413a.185.185 0 0 1-.103-.339 3.16 3.16 0 0 0 1.212-3.609c-.285-.851-.906-1.622-1.703-2.117a4.121 4.121 0 0 0-2.148-.61c-.041.007-.106.005-.157.008-.206.017-.513.041-.633-.352-.056-.184-.037-.382-.022-.556.007-.079.015-.157.014-.231a.186.186 0 0 1 .182-.188c.103 0 .185.081.186.183.001.086-.007.178-.016.27-.014.147-.028.299.007.413.031.098.033.109.252.091.06-.005.12-.002.186-.009.829 0 1.638.23 2.34.665.869.539 1.546 1.383 1.859 2.314a3.535 3.535 0 0 1-1.355 4.036.172.172 0 0 1-.101.031z"></path>
        <path d="M135.49 128.255a.185.185 0 0 1-.182-.159.187.187 0 0 1 .156-.21c1.487-.214 1.847-1.705 1.838-1.836a.182.182 0 0 1 .144-.215c.101-.027.197.047.217.148.037.185-.102.726-.449 1.22a2.461 2.461 0 0 1-1.698 1.05c-.009.002-.017.002-.026.002z"></path>
        <path d="M134.27 123.955c-.141-.029-.202-.129-.179-.228.194-.826.629-2.025 2.16-2.899 1.898-1.083 3.516-.398 3.584-.368a.184.184 0 0 1 .095.243.184.184 0 0 1-.241.097c-.015-.007-1.525-.639-3.256.351-1.39.794-1.79 1.84-1.984 2.663a.185.185 0 0 1-.179.141z"></path>
        <path d="M133.441 121.844a.185.185 0 0 1-.119-.043.186.186 0 0 1-.022-.261c1.134-1.358 3.018-.753 3.098-.726a.186.186 0 0 1 .117.234.186.186 0 0 1-.232.118c-.016-.006-1.731-.55-2.702.613a.18.18 0 0 1-.14.065z"></path>
        <path d="M111.893 136.869a.18.18 0 0 1-.147-.075c-.266-.361-.476-.971-.268-1.602.166-.505.67-1.2 2.128-1.643 2.627-.798 5.972.075 6.113.112a.186.186 0 0 1-.094.358c-.033-.01-3.387-.884-5.912-.115-1.035.314-1.687.801-1.886 1.405-.163.495.004.978.215 1.264a.185.185 0 0 1-.149.296z"></path>
        <path d="M112.49 134.313a.182.182 0 0 1-.135-.06c-.375-.409-.485-.9-.311-1.384.301-.835 1.377-1.469 2.808-1.655.971-.126 2.116-.229 3.247-.043 1.177.196 2.286.574 3.597 1.225l.143.071c.333.165.595.295.912.486a.184.184 0 1 1-.188.318c-.304-.183-.561-.31-.885-.471l-.144-.071c-1.277-.635-2.355-1.003-3.495-1.192-1.082-.18-2.195-.078-3.139.044-1.275.166-2.26.721-2.509 1.414-.127.352-.045.7.235 1.006a.187.187 0 0 1-.136.312z"></path>
        <path d="M122.522 141.671c-.527 0-1.03-.073-1.486-.223-1.944-.638-2.532-2.07-2.659-2.458-.582-.209-1.188-.127-1.828-.04-.18.024-.36.049-.539.066-.927.092-1.868.108-2.795.047-.607-.039-1.276-.151-1.644-.688-.351-.515-.281-1.224.179-1.806.414-.524.996-.718 1.559-.904 2.265-.751 4.693-.683 6.842.185.094.038.14.146.102.241a.183.183 0 0 1-.239.103c-2.068-.838-4.405-.902-6.58-.181-.545.181-1.05.348-1.395.786-.284.359-.476.907-.164 1.365.278.407.846.495 1.365.529.909.058 1.829.043 2.736-.046.174-.018.35-.041.525-.065.687-.093 1.398-.189 2.096.096a.185.185 0 0 1 .11.126c.017.066.433 1.631 2.444 2.291 1.2.394 2.761.217 4.176-.474a.184.184 0 0 1 .246.086.187.187 0 0 1-.086.248c-.969.472-2.006.716-2.965.716z"></path>
        <path d="M120.949 132.353a.185.185 0 0 1-.107-.336c1.775-1.28 2.717-2.571 2.878-3.946.297-2.53-1.99-5.187-4.884-8.55-.571-.665-1.165-1.353-1.762-2.071a.186.186 0 0 1 .023-.261.183.183 0 0 1 .259.023c.596.716 1.188 1.403 1.759 2.066 2.954 3.432 5.288 6.143 4.972 8.836-.174 1.485-1.165 2.86-3.03 4.204a.193.193 0 0 1-.108.035z"></path>
        <path d="M76.481 107.483c-1.685 0-3.013-.325-3.152-1.101-.109-.61.472-1.211 1.728-1.788a.183.183 0 0 1 .243.092.186.186 0 0 1-.091.245c-1.053.484-1.592.976-1.518 1.384.128.717 2.55 1.1 5.82.506 1.514-.276 2.903-.709 3.912-1.219.918-.464 1.428-.953 1.364-1.308-.04-.221-.195-.469-1.041-.632a.184.184 0 0 1-.146-.216.18.18 0 0 1 .215-.147c.848.162 1.247.44 1.335.929.099.55-.441 1.14-1.561 1.706-1.04.525-2.465.97-4.012 1.252a17.79 17.79 0 0 1-3.096.297z"></path>
        <path d="M143.941 121.316a.185.185 0 0 1-.158-.09c-.776-1.306-1.763-1.872-3.102-1.8-.931.054-1.554.375-2.153 1.107a.182.182 0 0 1-.259.025.186.186 0 0 1-.025-.261c.662-.81 1.383-1.18 2.415-1.24 1.483-.087 2.597.562 3.44 1.98a.186.186 0 0 1-.064.254.197.197 0 0 1-.094.025z"></path>
        <path d="M134.26 137.836c-.303 0-.603-.009-.899-.029a.183.183 0 0 1-.171-.197.193.193 0 0 1 .195-.173c6.981.458 16.044-4.674 21.718-9.231-.09-.528-.548-2.96-1.632-5.012-1.465-2.772-3.925-4.233-4.4-4.496l-7.184 3.698a.183.183 0 0 1-.247-.081.186.186 0 0 1 .081-.249l7.269-3.742a.186.186 0 0 1 .166 0c.12.061 2.967 1.532 4.64 4.697 1.248 2.362 1.684 5.207 1.688 5.235a.185.185 0 0 1-.066.172c-5.483 4.424-14.17 9.408-21.158 9.408z"></path>
        <path d="M155.777 133.141c-3.349 0-6.363-.388-6.61-.421a.185.185 0 0 1-.158-.208.18.18 0 0 1 .206-.16c.12.017 11.995 1.544 14.962-1.429 3.777-3.786 1.786-7.472-.52-11.741l-.159-.295c-2.39-4.432-7.988-14.811-14.712-15.85a.185.185 0 0 1 .055-.366c6.904 1.066 12.563 11.558 14.979 16.038l.159.295c2.277 4.217 4.429 8.2.456 12.182-1.553 1.559-5.276 1.955-8.658 1.955z"></path>
        <path d="M102.725 94.586a.183.183 0 0 1-.123-.047c-.065-.058-.631-.585-.649-1.131a.721.721 0 0 1 .209-.536.79.79 0 0 1 .58-.255c.239 0 .462.106.625.213.113-1.02.191-2.451-.014-2.764a.186.186 0 0 1 .053-.257.184.184 0 0 1 .255.053c.368.566.091 2.884.032 3.343a.186.186 0 0 1-.124.152.181.181 0 0 1-.19-.046c-.088-.09-.374-.324-.638-.324a.431.431 0 0 0-.318.144.347.347 0 0 0-.104.265c.01.331.384.738.526.867a.185.185 0 0 1 .014.261.17.17 0 0 1-.134.062z"></path>
        <path d="M100.071 85.362a.184.184 0 0 1-.15-.078l-.593-.842a.185.185 0 0 1 .044-.258.182.182 0 0 1 .256.044l.592.842a.185.185 0 0 1-.149.292z"></path>
        <path d="M146.192 95.172a.183.183 0 0 1-.125-.049c-.43-.4-1.403-.501-2.113-.575a5.462 5.462 0 0 1-.71-.1c-.611-.161-.795-1.903-.837-2.433l-.15-.591a.188.188 0 0 1 .045-.173c1.651-1.749 1.744-4.082 1.745-4.105a.185.185 0 0 1 .129-.171.183.183 0 0 1 .203.067c.079.109 1.975 2.636 5.711 1.76.1-.026.198.039.221.138.023.1-.038.2-.137.223-3.135.738-5.097-.849-5.8-1.569-.103.778-.467 2.45-1.735 3.839l.131.523c.089 1.095.352 2.078.569 2.135.137.035.377.061.654.09.762.08 1.805.188 2.325.671a.187.187 0 0 1 .01.262.19.19 0 0 1-.136.058z"></path>
        <path d="M150.222 95.671a.187.187 0 0 1-.099-.029c-.537-.347-1.306-.152-1.314-.15a.183.183 0 0 1-.224-.133.184.184 0 0 1 .131-.225c.036-.01.931-.24 1.606.197.085.055.11.17.056.256a.189.189 0 0 1-.156.084z"></path>
        <path d="M159.058 150.461a.183.183 0 0 1-.174-.126c-1.847-5.553-1.729-17.271-1.728-17.388a.185.185 0 0 1 .184-.183.185.185 0 0 1 .184.188c-.002.117-.118 11.773 1.709 17.266a.184.184 0 0 1-.175.243z"></path>
        <path d="M127.345 150.461a.183.183 0 0 1-.183-.172c-.22-3.127-.003-8.128-.001-8.178a.185.185 0 0 1 .184-.177.188.188 0 0 1 .184.193c-.002.05-.219 5.029-.001 8.136a.185.185 0 0 1-.17.198h-.013z"></path>
        <path d="M142.63 112.977a.189.189 0 0 1-.167-.108l-4.345-9.552a.189.189 0 0 1 .032-.204l2.1-2.267a.181.181 0 0 1 .268 0l5.408 5.862 1.488-5.72a.185.185 0 0 1 .146-.136.178.178 0 0 1 .183.079l1.48 2.206a.18.18 0 0 1 .032.104v8.112a.184.184 0 0 1-.333.108l-2.889-4.042-3.246 5.469a.181.181 0 0 1-.157.089zm-4.127-9.701 4.148 9.119 3.139-5.29-5.406-5.86-1.881 2.031zm7.717 3.768 2.669 3.734v-7.481l-1.221-1.82-1.448 5.567z"></path>
        <path d="M145.873 119.185a.184.184 0 0 1-.176-.131c-1.163-3.825-2.554-7.287-2.567-7.321a.185.185 0 0 1 .101-.241.183.183 0 0 1 .24.102c.014.035 1.411 3.512 2.579 7.352a.186.186 0 0 1-.122.232.267.267 0 0 1-.055.007z"></path>
        <path d="M149.364 118.366c-.1 0-.182-.08-.184-.181-.1-4.658-.543-7.136-.547-7.161a.187.187 0 0 1 .148-.216.186.186 0 0 1 .214.149c.005.025.452 2.528.553 7.22a.184.184 0 0 1-.18.189h-.004z"></path>
        <path d="M68.994 88.502a.186.186 0 0 1-.064-.359l9.916-3.721a.187.187 0 0 1 .237.109.187.187 0 0 1-.108.239l-9.916 3.721a.216.216 0 0 1-.065.011z"></path>
        <path d="M70.464 92.793a.186.186 0 0 1-.065-.359l9.917-3.721a.188.188 0 0 1 .237.109.186.186 0 0 1-.108.238l-9.917 3.721a.181.181 0 0 1-.064.012z"></path>
        <path d="M71.934 97.084a.186.186 0 0 1-.064-.359l9.917-3.721a.19.19 0 0 1 .237.109.186.186 0 0 1-.108.238l-9.917 3.721a.187.187 0 0 1-.065.012z"></path>
        <path d="M140.67 119.426a.185.185 0 0 1-.008-.37c.039-.002 3.936-.168 7.336-.241.096-.018.185.08.188.181a.184.184 0 0 1-.18.189c-3.396.073-7.289.24-7.328.241h-.008z"></path>
        <path d="M163.67 125.325a.184.184 0 0 1-.176-.132c-.831-2.77-2.018-4.378-3.843-5.21l-.355-.058c-3.247-.546-6.122 2.266-6.15 2.295a.184.184 0 1 1-.258-.264c.123-.122 3.034-2.98 6.469-2.397l.378.061c1.99.891 3.244 2.572 4.112 5.465a.185.185 0 0 1-.123.231.146.146 0 0 1-.054.009z"></path>
        <path d="M159.952 119.928c-.152-.039-.206-.143-.175-.24.015-.053.365-1.323-1.605-2.187-2.044-.896-4.538.74-4.563.757a.182.182 0 0 1-.255-.052.186.186 0 0 1 .052-.257c.109-.073 2.685-1.765 4.912-.787 2.285 1.002 1.814 2.62 1.809 2.636a.183.183 0 0 1-.175.13z"></path>
        <path d="M149.177 118.643a.186.186 0 0 1-.142-.304c.049-.059 1.223-1.457 3.917-2.446a3.86 3.86 0 0 1 4.395 1.059.186.186 0 0 1-.033.259.183.183 0 0 1-.258-.033c-.058-.076-1.464-1.86-3.977-.937-2.601.955-3.749 2.321-3.76 2.335a.185.185 0 0 1-.142.067z"></path>
        <path d="M103.999 144.802a.184.184 0 0 1-.184-.185v-37.318a.184.184 0 1 1 .368 0v37.318a.184.184 0 0 1-.184.185z"></path>
        <path d="M106.759 112.971c-.498 0-.904-.409-.904-.911s.405-.911.904-.911c.498 0 .904.409.904.911s-.406.911-.904.911zm0-1.451c-.296 0-.536.242-.536.54s.24.54.536.54.536-.242.536-.54-.24-.54-.536-.54z"></path>
        <path d="M106.759 122.276a.908.908 0 0 1-.904-.91c0-.502.405-.911.904-.911a.91.91 0 0 1 .904.911c0 .502-.406.91-.904.91zm0-1.451c-.296 0-.536.242-.536.54s.24.54.536.54.536-.242.536-.54-.24-.54-.536-.54z"></path>
        <path d="M106.759 131.585a.91.91 0 0 1-.904-.911c0-.502.405-.911.904-.911a.91.91 0 0 1 .904.911.91.91 0 0 1-.904.911zm0-1.451c-.296 0-.536.243-.536.54s.24.54.536.54.536-.242.536-.54-.24-.54-.536-.54z"></path>
        <path d="M106.759 131.585a.91.91 0 0 1-.904-.911c0-.502.405-.911.904-.911a.91.91 0 0 1 .904.911.91.91 0 0 1-.904.911zm0-1.451c-.296 0-.536.243-.536.54s.24.54.536.54.536-.242.536-.54-.24-.54-.536-.54z"></path>
        <path d="M106.759 140.891c-.498 0-.904-.409-.904-.911s.405-.91.904-.91c.498 0 .904.408.904.91s-.406.911-.904.911zm0-1.451c-.296 0-.536.242-.536.54s.24.54.536.54.536-.242.536-.54-.24-.54-.536-.54z"></path>
        <path d="M145.69 112.977a.186.186 0 0 1-.149-.077l-1.673-2.337a.187.187 0 0 1 .041-.259.184.184 0 0 1 .257.042l1.611 2.251 1.835-.176.207-2.582c.008-.102.08-.186.198-.17a.186.186 0 0 1 .169.2l-.219 2.737a.185.185 0 0 1-.166.17l-2.093.2-.018.001z"></path>
        <path d="M145.346 117.517c-.115-.009-.191-.097-.183-.2l.344-4.539c.008-.102.087-.184.197-.17a.185.185 0 0 1 .169.199l-.344 4.539a.184.184 0 0 1-.183.171z"></path>
        <path d="M149.276 115.795a.185.185 0 0 1-.165-.103l-1.493-3.018a.186.186 0 0 1 .083-.248c.09-.046.2-.009.246.083l1.493 3.018a.186.186 0 0 1-.164.268z"></path>
        <path d="M53.322 99.933c-.441 0-.877-.275-1.239-.786-.373-.527-.629-1.252-.722-2.042-.092-.79-.009-1.555.233-2.155.257-.637.665-1.02 1.149-1.077.979-.107 1.889 1.125 2.087 2.822.073.626.06 1.049-.045 1.508a.184.184 0 1 1-.359-.084c.096-.419.107-.794.039-1.381-.169-1.441-.941-2.602-1.679-2.497-.345.041-.647.342-.851.848-.219.543-.293 1.244-.208 1.972.085.729.318 1.393.656 1.87.314.445.682.67 1.023.626.275-.032.433-.136.603-.395a.182.182 0 0 1 .254-.053.185.185 0 0 1 .052.256c-.23.353-.482.515-.867.56a1.04 1.04 0 0 1-.126.008z"></path>
        <path d="M57.711 99.143c-.924 0-1.772-1.205-1.962-2.829-.092-.79-.009-1.555.233-2.155.257-.637.665-1.019 1.149-1.076.483-.054.969.218 1.365.779.373.527.629 1.252.722 2.042.197 1.697-.41 3.117-1.382 3.232a1.309 1.309 0 0 1-.125.007zm-.456-5.697a.719.719 0 0 0-.081.005c-.345.041-.647.342-.851.848-.219.543-.293 1.243-.208 1.972.167 1.441.933 2.578 1.679 2.497.742-.088 1.228-1.38 1.059-2.82-.085-.729-.318-1.393-.656-1.87-.29-.411-.622-.632-.942-.632z"></path>
        <path d="M54.655 96.976a.185.185 0 0 1-.159-.278c.178-.309.734-.773 1.561-.313.089.05.121.162.073.252a.182.182 0 0 1-.25.073c-.707-.391-1.032.115-1.067.175a.185.185 0 0 1-.158.091z"></path>
        <path d="M68.548 138.795c-.067 0-.134-.003-.201-.009l-22.884-2.068a2.184 2.184 0 0 1-1.771-1.246l-2.686-5.728a.184.184 0 1 1 .333-.157l2.686 5.728a1.81 1.81 0 0 0 1.471 1.034l22.884 2.068a1.792 1.792 0 0 0 1.642-.77 1.813 1.813 0 0 0 .152-1.819l-3.613-7.703a.186.186 0 0 1 .088-.246.186.186 0 0 1 .245.089l3.613 7.703a2.178 2.178 0 0 1-.183 2.188 2.147 2.147 0 0 1-1.776.936z"></path>
        <path d="M64.814 124.15a.182.182 0 0 1-.166-.106l-2.471-5.268a1.812 1.812 0 0 0-1.471-1.034l-22.884-2.068a1.777 1.777 0 0 0-1.642.77 1.813 1.813 0 0 0-.152 1.819l1.187 2.53a.187.187 0 0 1-.088.247.185.185 0 0 1-.245-.089l-1.187-2.53a2.182 2.182 0 0 1 .183-2.189 2.15 2.15 0 0 1 1.976-.928l22.884 2.068a2.182 2.182 0 0 1 1.771 1.246l2.471 5.268a.186.186 0 0 1-.166.264z"></path>
        <path d="M69.863 138.289a.186.186 0 0 1-.13-.317l1.571-1.565a1.805 1.805 0 0 0 .055-1.664l-7.997-17.052a1.81 1.81 0 0 0-1.471-1.034l-22.884-2.068a1.82 1.82 0 0 0-.746.087l-1.638 1.316a.181.181 0 0 1-.258-.029.185.185 0 0 1 .029-.26l1.662-1.337a.195.195 0 0 1 .052-.03c.296-.108.608-.146.931-.118l22.884 2.068a2.184 2.184 0 0 1 1.771 1.246l7.997 17.052c.309.659.28 1.398-.081 2.028-.03.039-1.619 1.622-1.619 1.622a.173.173 0 0 1-.128.055z"></path>
        <path d="M63.241 103.777c-1.202 0-2.063-.304-2.567-.91-.438-.527-.628-1.099-.563-1.702.131-1.226 1.266-2.127 1.314-2.165a.185.185 0 0 1 .258.033.187.187 0 0 1-.032.26c-.011.008-1.062.845-1.175 1.913-.053.498.109.977.48 1.423.584.702 1.776.93 3.539.68 1.47-.207 3.219-.59 3.698-1.724.095-.226.131-.495.113-.87-.052-1.087-.46-2.145-1.121-2.902l-.136-.154c-.588-.666-1.096-1.24-.806-2.317.406-1.504.047-3.456-.853-4.642-.354-.466-.952-1.021-1.795-1.021h-.959a.182.182 0 0 1-.156-.087l-.375-.608c-1.498-2.152-3.279-1.788-5.164-1.401-.87.178-1.773.361-2.664.305-1.412-.088-2.654.287-3.406 1.034-.663.657-.971 1.591-.917 2.775.018.403.156 1.148.869 1.611.644.419 1.933.703 4.421-.303 2.463-.994 3.974-1.46 4.256-1.322a.187.187 0 0 1 .099.142c.004.028.367 2.832 1.014 3.621a.186.186 0 0 1-.025.261.183.183 0 0 1-.259-.025c-.628-.767-.987-3.04-1.074-3.658-.245.036-1.149.223-3.874 1.324-2.637 1.064-4.042.733-4.757.27-.632-.409-1.001-1.086-1.038-1.905-.06-1.293.286-2.322 1.027-3.056 1.132-1.123 2.795-1.196 3.686-1.139.842.05 1.722-.126 2.568-.299 1.918-.394 3.902-.801 5.544 1.56l.327.529h.857c.786 0 1.508.404 2.087 1.167.98 1.29 1.356 3.332.917 4.964-.238.883.166 1.34.726 1.974l.137.156c.715.819 1.157 1.96 1.213 3.13.012.27.011.67-.142 1.033-.552 1.304-2.42 1.725-3.985 1.945-.475.066-.91.1-1.307.1z"></path>
        <path d="M45.417 150.461a.184.184 0 0 1-.167-.262c1.64-3.602 1.539-13.429 1.537-13.528a.186.186 0 0 1 .182-.188c.103 0 .185.081.186.183.005.407.103 10.011-1.571 13.687a.182.182 0 0 1-.167.108z"></path>
        <path d="M54.809 104.774c-1.04 0-2.068-.304-2.522-1.211-.82-1.637.798-3.134.815-3.149a.183.183 0 0 1 .259.014.186.186 0 0 1-.013.261c-.058.054-1.426 1.324-.733 2.707.703 1.399 3.182 1.076 4.291.6a.183.183 0 0 1 .241.098.186.186 0 0 1-.098.243c-.559.24-1.403.437-2.24.437z"></path>
        <path d="M38.954 129.949c-1.916 0-3.442-.46-4.074-1.274-.473-.61-.825-1.4-1.077-2.416a13.422 13.422 0 0 1-.305-4.726c.202-1.736 2.196-3.226 2.281-3.289a.18.18 0 0 1 .256.04.185.185 0 0 1-.039.258c-.02.014-1.95 1.458-2.133 3.034a13.066 13.066 0 0 0 .296 4.592c.239.965.57 1.709 1.01 2.278.588.755 2.448 1.372 5.279 1.043.848-.098 2.381-.75 2.259-1.876a.998.998 0 0 0-.524-.775.185.185 0 0 1 .176-.326c.399.218.666.615.714 1.061.145 1.337-1.455 2.153-2.582 2.284a13.34 13.34 0 0 1-1.537.092z"></path>
        <path d="M40.368 124.445c-1.265 0-3.955-.293-4.303-.429a.186.186 0 0 1 .133-.346c.308.12 3.809.504 4.601.384l.139-.019c.341-.045.855-.114 1.034-.404.254-.411.316-.88.172-1.286-.12-.337-.385-.62-.788-.84-.325-.177-.692-.155-1.078-.133-.1.006-.2.011-.3.014-3.792.088-4.492-.751-4.559-.849a.187.187 0 0 1 .046-.258.183.183 0 0 1 .253.042c.018.021.702.784 4.251.694.095-.002.191-.008.288-.014.422-.024.857-.05 1.273.177.485.265.808.615.959 1.041.183.513.107 1.099-.206 1.606-.27.439-.889.521-1.298.575l-.134.018a3.185 3.185 0 0 1-.483.027z"></path>
        <path d="M48.8 115.473a.184.184 0 0 1-.184-.185v-.73a.184.184 0 1 1 .368 0v.73a.186.186 0 0 1-.184.185z"></path>
        <path d="M39.708 127.294c-1.839 0-3.69-.261-3.714-.264a.184.184 0 0 1-.156-.209.192.192 0 0 1 .208-.158c.03.004 2.942.413 5.053.198.762-.078 1.545-.578 1.464-1.493-.039-.447-.357-.948-.792-1.245a.186.186 0 0 1-.049-.257.183.183 0 0 1 .255-.049c.529.363.902.958.952 1.518.103 1.165-.858 1.798-1.793 1.894-.451.047-.939.065-1.428.065z"></path>
        <path d="M52.214 129.106c-.236 0-.488-.065-.743-.193-.456-.23-.872-.645-1.17-1.165-.629-1.099-.533-2.347.215-2.783.746-.435 1.868.106 2.498 1.204.629 1.1.533 2.347-.214 2.783a1.15 1.15 0 0 1-.586.154zm-1.106-3.925a.799.799 0 0 0-.408.106c-.572.333-.608 1.354-.079 2.276.263.459.624.821 1.016 1.019.367.186.715.205.98.049.572-.332.607-1.354.079-2.276-.415-.724-1.055-1.174-1.588-1.174z"></path>
        <path d="M58.396 111.474a.764.764 0 0 1-.256-.041c-1.138-.399-.757-3.914-.656-4.706l-.684-3.011a.185.185 0 0 1 .139-.222.185.185 0 0 1 .22.14l.692 3.043a.177.177 0 0 1 .003.065c-.217 1.667-.233 4.116.407 4.341.977.335 3.761-2.727 5.338-4.783l-.607-2.682a.185.185 0 0 1 .138-.222.186.186 0 0 1 .22.139l.626 2.767c.012.054 0 .11-.033.154-.41.537-3.872 5.018-5.547 5.018z"></path>
        <path d="M60.815 90.686a.185.185 0 0 1-.08-.352l1.286-.632a.185.185 0 0 1 .162.333l-1.286.632a.192.192 0 0 1-.082.019z"></path>
        <path d="M141.277 84.927a.184.184 0 0 1-.17-.113 36.76 36.76 0 0 1-.78-2.026l-.209-.575c-.114-.31-.111-.708.005-.968.298-.668.61-1.33.922-1.991.333-.703.665-1.407.98-2.119.064-.143.024-.465-.068-.565-.583-.627-1.195-1.249-1.786-1.852-.456-.464-.911-.928-1.36-1.399-.216-.227-.348-.248-.64-.101a107.187 107.187 0 0 1-3.936 1.88 1.485 1.485 0 0 1-1.031.047 73.863 73.863 0 0 1-3.767-1.486c-.303-.129-.67-.415-.808-.761a76.346 76.346 0 0 1-1.423-3.905c-.124-.367-.233-.504-.618-.485a96.078 96.078 0 0 1-4.365.002c-.343-.004-.505.099-.634.477a82.671 82.671 0 0 1-.665 1.865c-.238.654-.477 1.307-.698 1.967-.158.47-.418.722-.928.9a39.75 39.75 0 0 0-3.519 1.419c-.473.219-.833.214-1.282-.013-.653-.33-1.312-.648-1.971-.966-.626-.301-1.251-.603-1.871-.915-.311-.157-.463-.131-.705.123a89.733 89.733 0 0 1-3.088 3.109c-.279.266-.268.428-.096.778a93.087 93.087 0 0 1 1.826 3.903c.13.3.12.762-.024 1.1l-.074.174c-.108.254-.159.375-.303.695a.184.184 0 0 1-.243.093.185.185 0 0 1-.092-.245c.142-.318.192-.437.3-.69l.074-.174c.104-.244.115-.597.025-.805a94.782 94.782 0 0 0-1.818-3.887c-.216-.44-.263-.797.172-1.212a90.847 90.847 0 0 0 3.076-3.097c.353-.37.683-.427 1.135-.199.618.312 1.241.612 1.865.913.662.318 1.323.638 1.979.97.35.177.591.179.963.007a40.067 40.067 0 0 1 3.552-1.432c.402-.141.579-.309.7-.669.223-.662.463-1.319.702-1.976.225-.618.45-1.235.662-1.857.179-.528.47-.727.989-.727 1.537.034 2.959.033 4.348-.002.613-.014.818.271.975.737.533 1.574.97 2.773 1.415 3.886.082.204.344.444.611.558a72.755 72.755 0 0 0 3.748 1.478c.216.079.541.062.757-.037a107.212 107.212 0 0 0 3.923-1.873c.435-.218.743-.166 1.069.177.447.469.901.932 1.356 1.395.593.604 1.206 1.228 1.793 1.86.193.208.26.687.136.969-.316.714-.65 1.42-.983 2.127a96.314 96.314 0 0 0-.92 1.984c-.077.173-.075.468.005.687l.209.577c.258.715.414 1.147.774 2.008a.187.187 0 0 1-.098.243.193.193 0 0 1-.073.014z"></path>
        <path d="M124.392 99.777a8.568 8.568 0 0 1-6.133-2.556 8.744 8.744 0 0 1-2.528-6.197c.001-2.349.897-4.542 2.523-6.176 1.638-1.646 3.843-2.553 6.208-2.553 4.763.01 8.619 3.936 8.616 8.75-.003 4.813-3.899 8.73-8.684 8.731v-.185.185l-.002.001zm.071-17.11c-2.268 0-4.379.867-5.948 2.445-1.556 1.564-2.414 3.664-2.415 5.914a8.374 8.374 0 0 0 2.42 5.935 8.202 8.202 0 0 0 5.872 2.447c4.585-.001 8.315-3.752 8.319-8.361.003-4.61-3.689-8.369-8.23-8.379l-.018-.001z"></path>
        <path d="M124.39 101.574a10.427 10.427 0 0 1-7.694-3.397.186.186 0 0 1 .011-.262.183.183 0 0 1 .26.011 10.058 10.058 0 0 0 9.023 3.152.182.182 0 0 1 .21.154.185.185 0 0 1-.153.212c-.546.086-1.103.13-1.655.13h-.002z"></path>
        <path d="M131.04 99.136a.186.186 0 0 1-.119-.327 10.053 10.053 0 0 0 2.483-3.158.184.184 0 0 1 .247-.081c.09.046.127.158.081.249a10.43 10.43 0 0 1-2.574 3.273.177.177 0 0 1-.118.044z"></path>
        <path d="M129.808 82.401a.182.182 0 0 1-.097-.028 9.878 9.878 0 0 0-5.215-1.503c-1.41 0-2.75.265-4.004.789a.182.182 0 0 1-.24-.1.186.186 0 0 1 .099-.242 10.624 10.624 0 0 1 4.123-.818c1.936.005 3.806.543 5.43 1.559a.186.186 0 0 1 .059.255.178.178 0 0 1-.155.088z"></path>
        <path d="M91.25 85.426a83.922 83.922 0 0 0-3.256-.001c-.406 0-.623-.162-.746-.539a85.488 85.488 0 0 0-1.077-3.117.795.795 0 0 0-.367-.381c-.4-.19-.805-.368-1.21-.546-.501-.22-1.02-.448-1.52-.696-.271-.136-.433-.141-.67-.022-.46.23-.881.431-1.312.636-.262.125-.529.252-.811.389a.184.184 0 0 1-.246-.086.186.186 0 0 1 .086-.248c.283-.137.55-.265.814-.39.43-.204.848-.404 1.306-.632.344-.171.622-.165.996.021.492.245 1.007.471 1.504.689.409.18.818.359 1.221.551.241.114.468.356.554.587.34.917.684 1.912 1.082 3.13.076.229.164.284.39.284a82.977 82.977 0 0 1 3.239.001c.253.002.33-.053.413-.316a60.278 60.278 0 0 1 1.065-3.078c.106-.28.379-.512.603-.618a58.696 58.696 0 0 1 2.807-1.227c.208-.086.548-.123.802-.011.819.367 1.612.746 2.453 1.148l.749.357.522-.531a110 110 0 0 0 2.008-2.075c.042-.045.067-.264.018-.375-.232-.522-.476-1.038-.72-1.554-.218-.462-.437-.924-.646-1.39a1.118 1.118 0 0 1-.05-.763 56.377 56.377 0 0 1 1.077-2.884c.108-.264.356-.519.606-.62a60.6 60.6 0 0 1 2.874-1.072c.223-.078.277-.157.272-.399-.02-1.164-.02-2.231.001-3.265.005-.252-.06-.34-.316-.43a52.839 52.839 0 0 1-2.822-1.055c-.248-.103-.506-.372-.628-.655a52.653 52.653 0 0 1-1.082-2.762c-.074-.204-.102-.516.005-.754.222-.498.454-.99.687-1.483a69.3 69.3 0 0 0 .724-1.566c.042-.094.01-.311-.041-.366-.433-.466-.879-.92-1.325-1.374-.338-.344-.676-.689-1.01-1.038-.145-.151-.221-.164-.419-.066a79.796 79.796 0 0 1-2.922 1.396 1.142 1.142 0 0 1-.801.035 54.123 54.123 0 0 1-2.797-1.103c-.234-.1-.518-.321-.625-.59-.334-.837-.66-1.73-1.057-2.899-.093-.276-.154-.339-.413-.328a68.524 68.524 0 0 1-3.24.001c-.248-.003-.335.061-.424.322-.156.459-.322.915-.488 1.371-.178.489-.357.979-.523 1.472-.123.364-.324.559-.717.698-.908.317-1.785.671-2.608 1.051-.365.169-.644.166-.992-.01-.489-.248-.982-.486-1.475-.724-.46-.221-.92-.443-1.376-.673-.213-.109-.302-.093-.468.082a67.413 67.413 0 0 1-2.293 2.309c-.188.179-.182.277-.062.522.415.846.901 1.851 1.356 2.898.103.237.096.588-.017.854-.396.93-.821 1.853-1.265 2.747-.11.221-.344.519-.644.634a66.828 66.828 0 0 1-3.056 1.068c-.264.086-.327.169-.321.419.022 1.002.022 2.071.001 3.265-.005.241.047.314.274.388.933.303 2.033.669 3.112 1.083.292.111.523.422.633.654.184.389.354.786.523 1.182.207.484.422.984.659 1.459.204.409.211.733.021 1.115-.229.463-.448.932-.667 1.4a73.1 73.1 0 0 1-.631 1.327c-.12.243-.104.345.078.519.483.464.886.858 1.401 1.385a.184.184 0 1 1-.262.26 58.293 58.293 0 0 0-1.393-1.376c-.3-.288-.344-.564-.153-.952.215-.437.421-.878.628-1.32.22-.471.44-.942.67-1.407.138-.279.133-.476-.02-.783-.243-.485-.459-.99-.669-1.479a31.253 31.253 0 0 0-.518-1.17c-.101-.213-.282-.409-.431-.466a64.253 64.253 0 0 0-3.094-1.077c-.383-.124-.537-.34-.53-.747a81.617 81.617 0 0 0-.001-3.25c-.012-.515.269-.679.575-.779a64.459 64.459 0 0 0 3.039-1.062c.157-.06.344-.251.445-.453.44-.886.863-1.804 1.256-2.727.071-.168.08-.419.018-.559a68.078 68.078 0 0 0-1.348-2.882c-.165-.337-.205-.628.138-.955a66.657 66.657 0 0 0 2.28-2.296c.279-.293.538-.338.898-.157.454.229.912.449 1.369.67.496.238.991.477 1.482.727.246.124.41.126.674.005a29.523 29.523 0 0 1 2.64-1.064c.285-.1.405-.214.49-.467.167-.496.347-.989.526-1.481.165-.453.33-.906.486-1.363.142-.416.371-.58.78-.572 1.145.019 2.199.019 3.226-.007.468-.005.649.223.77.579a56.267 56.267 0 0 0 1.049 2.881c.056.141.24.308.427.388.909.388 1.843.757 2.778 1.095a.773.773 0 0 0 .527-.025 79.13 79.13 0 0 0 2.908-1.39c.339-.169.592-.128.848.141.331.348.669.691 1.005 1.034.448.456.896.913 1.331 1.381.172.184.2.565.109.77a68.025 68.025 0 0 1-.728 1.574 75.6 75.6 0 0 0-.683 1.476c-.052.116-.05.325.005.474.397 1.088.738 1.96 1.074 2.743.084.194.269.392.43.459 1 .414 2.023.777 2.802 1.048.409.143.572.371.564.788a85.719 85.719 0 0 0-.001 3.25c.007.4-.148.626-.52.756-.789.276-1.827.646-2.857 1.066a.844.844 0 0 0-.403.417c-.358.88-.708 1.817-1.07 2.865a.756.756 0 0 0 .038.49c.208.464.426.924.644 1.383.246.519.491 1.038.723 1.562.096.215.08.603-.085.78-.658.705-1.348 1.405-2.015 2.083l-.613.624a.179.179 0 0 1-.209.037l-.868-.414c-.838-.401-1.63-.779-2.444-1.144-.127-.057-.355-.051-.515.015-.977.397-1.915.808-2.79 1.22-.18.084-.358.262-.415.414-.359.95-.705 1.951-1.059 3.059-.127.405-.342.573-.738.573z"></path>
        <path d="M89.61 74.543a6.401 6.401 0 0 1-4.584-1.91 6.529 6.529 0 0 1-1.889-4.631c.001-1.755.671-3.395 1.886-4.615 1.224-1.231 2.871-1.908 4.638-1.908 3.562.007 6.444 2.94 6.441 6.539-.002 3.597-2.914 6.525-6.49 6.525v-.185.185h-.002zm.051-12.694a6.13 6.13 0 0 0-4.379 1.799 6.126 6.126 0 0 0-1.777 4.354 6.159 6.159 0 0 0 1.782 4.369 6.042 6.042 0 0 0 4.324 1.801c3.375-.001 6.122-2.761 6.124-6.155.003-3.395-2.715-6.162-6.059-6.169l-.015.001z"></path>
        <path d="M81.958 70.357a.183.183 0 0 1-.177-.136 8.335 8.335 0 0 1-.297-2.222 8.277 8.277 0 0 1 1.089-4.12.182.182 0 0 1 .251-.068.186.186 0 0 1 .067.253 7.913 7.913 0 0 0-1.039 3.935 7.972 7.972 0 0 0 .284 2.123.185.185 0 0 1-.178.235z"></path>
        <path d="M89.609 76.209a8.12 8.12 0 0 1-1.982-.244.184.184 0 0 1-.134-.224c.024-.1.126-.16.222-.135a7.802 7.802 0 0 0 1.894.232 7.796 7.796 0 0 0 7.495-5.716.181.181 0 0 1 .227-.129.186.186 0 0 1 .128.228 8.168 8.168 0 0 1-7.85 5.988z"></path>
        <path d="M92.97 60.914a.2.2 0 0 1-.078-.017 7.527 7.527 0 0 0-3.202-.715.184.184 0 0 1-.183-.186c0-.102.082-.185.184-.185 1.171.002 2.3.254 3.357.749a.185.185 0 0 1 .089.246.184.184 0 0 1-.167.108z"></path>
        <path d="M154.998 116.038a.185.185 0 0 1-.18-.15c-.005-.027-.523-2.681-1.473-4.511a.186.186 0 0 1 .078-.25.184.184 0 0 1 .248.078c.975 1.879 1.487 4.502 1.508 4.612a.185.185 0 0 1-.181.221z"></path>
        <path d="M138.933 127.786c-.294 0-.551-.063-.766-.188-.38-.22-.648-.648-.796-1.273a5.408 5.408 0 0 1-.133-.92c-.091-1.479.232-2.78.908-3.661.766-.998 1.872-1.593 2.959-1.593 1.597 0 2.103 1.193 2.124 1.244a.185.185 0 0 1-.34.142c-.018-.042-.441-1.015-1.783-1.015-.975 0-1.973.542-2.669 1.449-.838 1.093-.881 2.607-.832 3.412.018.298.06.586.124.857.124.521.333.87.623 1.037.191.112.433.154.729.132.558-.045 1.048-.331 1.279-.746.19-.342.21-.758.207-1.082l-.006-.28c-.013-.522-.026-1.063.167-1.606.22-.62.594-1.146.931-1.579a.185.185 0 1 1 .289.229c-.319.41-.672.905-.874 1.475-.17.479-.158.962-.146 1.472l.006.285c.004.371-.021.849-.253 1.267-.291.522-.893.88-1.571.934a1.8 1.8 0 0 1-.177.008z"></path>
    </g>
</svg>